<svg width="105" height="198" viewBox="0 0 105 198" fill="none" xmlns="http://www.w3.org/2000/svg">
<g clip-path="url(#clip0)">
<path fill-rule="evenodd" clip-rule="evenodd" d="M39.5081 165.568C39.5081 165.568 38.3163 180.389 37.928 184.354L31.6011 183.804C31.6011 183.804 32.8999 169.809 32.7392 166.031L39.5081 165.568Z" fill="#FBC9A6"/>
<path fill-rule="evenodd" clip-rule="evenodd" d="M31.8286 181.852L31.5742 183.683L32.3509 187.373L34.5 185.998L38.0418 183.73L38.1355 182.06C36.0581 182.609 33.8655 182.537 31.8286 181.852Z" fill="#EFE3FF"/>
<path fill-rule="evenodd" clip-rule="evenodd" d="M32.3779 174.732L32.1904 176.812C34.2187 177.587 36.4326 177.732 38.5441 177.228L38.6847 175.37C38.6847 175.37 34.4802 176.517 32.3779 174.732Z" fill="#EFE3FF"/>
<path fill-rule="evenodd" clip-rule="evenodd" d="M32.19 176.812L32.0762 177.98C33.77 178.557 36.3544 179.174 38.4299 178.483L38.5236 177.228C36.4179 177.721 34.2136 177.577 32.19 176.812Z" fill="#E2CFFF"/>
<path fill-rule="evenodd" clip-rule="evenodd" d="M62.1043 114.525C62.1043 114.525 66.3557 130.097 48.647 129.641C48.647 129.641 26.687 132.385 26.9347 115.445L62.1043 114.525Z" fill="#535E5D"/>
<path fill-rule="evenodd" clip-rule="evenodd" d="M29.2443 178.577C31.0328 179.352 32.9733 179.712 34.9202 179.628C36.8671 179.544 38.7698 179.02 40.4855 178.094C42.3869 163.166 41.8245 130.902 43.6858 129.983L28.5347 121.992C28.5347 121.992 30.0009 158.222 29.2443 178.577Z" fill="#535E5D"/>
<path fill-rule="evenodd" clip-rule="evenodd" d="M29.6797 193.009C29.6797 193.76 29.7935 194.29 29.9542 194.351C32.967 196.028 43.3913 198.497 47.9173 197.88C48.7809 197.766 50.7024 197.101 51.0908 196.296C51.2733 195.855 51.3447 195.376 51.2984 194.901C50.8632 195.679 48.9416 196.343 48.0511 196.457C43.4583 197.081 32.9469 194.679 29.6797 193.009Z" fill="#EAE4F4"/>
<path fill-rule="evenodd" clip-rule="evenodd" d="M29.5121 184.736C29.5409 184.796 29.5793 184.85 29.6259 184.897C29.7747 185.059 29.9334 185.211 30.1013 185.353C30.1013 185.816 29.5991 190.58 29.6929 193.008C32.9601 194.679 43.4514 197.081 48.0643 196.484C48.9548 196.37 50.8964 195.705 51.3115 194.927C51.2114 193.264 50.6322 191.665 49.6444 190.325C48.158 188.721 41.8244 187.641 40.6126 187.44C40.431 186.931 40.3162 186.401 40.2712 185.863C40.2712 185.722 40.2712 185.541 40.3181 185.333C40.4319 184.575 40.6394 183.502 40.3181 182.972C40.2936 182.917 40.2541 182.87 40.2042 182.837C38.9054 181.603 34.2858 181.529 33.1476 182.884C32.5316 183.616 32.94 186.776 32.94 186.776V186.917V186.776C32.4419 185.88 32.0359 184.936 31.7282 183.958C31.5943 183.367 30.0142 183.434 29.5589 183.797L29.492 183.871C29.415 184.155 29.422 184.456 29.5121 184.736Z" fill="#8D9180"/>
<path d="M36.2811 189.097C36.2303 189.096 36.1804 189.084 36.1339 189.064C36.0854 189.045 36.0413 189.016 36.0041 188.979C35.9669 188.943 35.9374 188.899 35.9175 188.851C35.8975 188.803 35.8873 188.751 35.8877 188.699C35.8881 188.647 35.8989 188.595 35.9196 188.547C36.7096 186.655 40.961 186.769 41.4431 186.796C41.5478 186.796 41.6483 186.838 41.7224 186.912C41.7965 186.986 41.8381 187.087 41.8381 187.192C41.8381 187.297 41.7965 187.398 41.7224 187.472C41.6483 187.546 41.5478 187.588 41.4431 187.588C39.8362 187.527 37.118 187.803 36.6828 188.856C36.6487 188.933 36.5919 188.997 36.52 189.04C36.4482 189.083 36.3647 189.103 36.2811 189.097Z" fill="white"/>
<path d="M40.0772 190.01C40.0264 190.019 39.9741 190.019 39.9233 190.01C39.8277 189.968 39.7519 189.891 39.7119 189.795C39.6719 189.698 39.6709 189.59 39.709 189.493C40.5057 187.594 44.7571 187.715 45.2325 187.735C45.2849 187.737 45.3365 187.749 45.3842 187.771C45.432 187.793 45.4749 187.824 45.5104 187.863C45.546 187.902 45.5735 187.947 45.5913 187.997C45.6091 188.046 45.6168 188.099 45.6141 188.151C45.6134 188.204 45.6019 188.256 45.5802 188.304C45.5586 188.352 45.5272 188.395 45.4883 188.43C45.4493 188.465 45.4035 188.492 45.3538 188.509C45.304 188.525 45.2513 188.532 45.199 188.527C43.5922 188.467 40.8806 188.748 40.4387 189.795C40.406 189.862 40.3544 189.919 40.2901 189.957C40.2259 189.995 40.1519 190.013 40.0772 190.01Z" fill="white"/>
<path fill-rule="evenodd" clip-rule="evenodd" d="M28.7422 174.022C28.7422 174.022 29.0635 173.699 29.3113 173.84C30.5499 174.511 34.5469 176.47 40.8337 173.975C40.9876 173.907 41.3358 174.068 41.5032 173.975C41.5032 173.975 42.1392 177.96 41.155 178.557C39.0795 179.838 35.9462 181.583 28.7958 178.51L28.7422 174.022Z" fill="#A3B2AF"/>
<path fill-rule="evenodd" clip-rule="evenodd" d="M63.6174 159.274C63.6174 159.274 64.0527 174.115 64.0928 178.094L57.7391 178.255C57.7391 178.255 57.5115 164.219 56.9424 160.462L63.6174 159.274Z" fill="#FBC9A6"/>
<path fill-rule="evenodd" clip-rule="evenodd" d="M57.7656 176.289L57.7188 178.121L58.8837 181.69L60.8922 180.087L64.1595 177.457L64.0724 175.786C62.0676 176.582 59.8708 176.757 57.7656 176.289Z" fill="#EFE3FF"/>
<path fill-rule="evenodd" clip-rule="evenodd" d="M57.5381 169.164L57.585 171.251C59.68 171.802 61.8923 171.706 63.932 170.976L63.865 169.117C63.865 169.117 59.8211 170.701 57.5381 169.164Z" fill="#EFE3FF"/>
<path fill-rule="evenodd" clip-rule="evenodd" d="M57.585 171.251V172.418C59.3458 172.807 61.9501 173.129 63.9587 172.237L63.9118 170.976C61.8782 171.701 59.6737 171.797 57.585 171.251Z" fill="#E2CFFF"/>
<path fill-rule="evenodd" clip-rule="evenodd" d="M55.1346 173.518C57.0172 174.028 58.9906 174.103 60.9063 173.738C62.8221 173.373 64.6304 172.578 66.195 171.411C65.9473 156.343 62.0173 124.347 62.178 122.153L56.8218 121.348L49.7651 124.28C49.7651 124.28 47.1339 121.945 48.2788 128.446C50.428 140.61 53.722 160.321 55.1346 173.518Z" fill="#535E5D"/>
<path fill-rule="evenodd" clip-rule="evenodd" d="M56.0718 187.42C56.1454 188.171 56.2592 188.701 56.4132 188.762C59.4997 190.298 70.0378 192.244 74.537 191.398C75.4073 191.237 77.282 190.479 77.6234 189.654C77.7792 189.206 77.8274 188.728 77.764 188.259C77.369 189.057 75.4743 189.815 74.5838 189.976C70.0378 190.828 59.4127 188.95 56.0718 187.42Z" fill="#EAE4F4"/>
<path fill-rule="evenodd" clip-rule="evenodd" d="M55.7506 179.268C55.7929 179.324 55.84 179.375 55.8912 179.422C56.0501 179.577 56.2178 179.723 56.3933 179.859C56.3933 180.322 56.2125 185.105 56.4402 187.507C59.7877 188.976 70.4264 190.761 74.9925 189.889C75.8896 189.708 77.7642 188.949 78.1526 188.151C77.9309 186.495 77.2566 184.932 76.2043 183.636C74.6309 182.126 68.2571 181.442 67.0185 181.328C66.8045 180.831 66.6581 180.307 66.5833 179.771C66.5716 179.595 66.5716 179.418 66.5833 179.241C66.6503 178.483 66.7909 177.39 66.4695 176.886C66.4357 176.836 66.3976 176.789 66.3557 176.746C65.0167 175.598 60.3903 175.806 59.3124 177.202C58.7433 177.98 59.3124 181.1 59.3124 181.1V181.234L59.2655 181.1C58.7229 180.232 58.257 179.318 57.8729 178.369C57.7123 177.799 56.1389 177.94 55.7037 178.369C55.6917 178.376 55.6812 178.386 55.6732 178.398C55.6651 178.409 55.6596 178.422 55.6569 178.436C55.6011 178.717 55.6338 179.007 55.7506 179.268Z" fill="#8D9180"/>
<path d="M62.767 183.233H62.6398C62.5412 183.198 62.4603 183.126 62.414 183.032C62.3678 182.938 62.3599 182.83 62.392 182.73C63.0616 180.784 67.3263 180.637 67.8084 180.63C67.8608 180.628 67.9131 180.637 67.9621 180.656C68.0112 180.674 68.056 180.703 68.094 180.739C68.132 180.775 68.1625 180.819 68.1836 180.867C68.2047 180.915 68.216 180.967 68.2169 181.019C68.2169 181.124 68.1764 181.224 68.1039 181.299C68.0315 181.374 67.9327 181.418 67.8285 181.422C66.215 181.455 63.5101 181.912 63.1419 182.985C63.1128 183.06 63.0611 183.125 62.9939 183.169C62.9267 183.213 62.8475 183.236 62.767 183.233Z" fill="white"/>
<path d="M66.6101 183.897C66.568 183.904 66.5249 183.904 66.4828 183.897C66.4335 183.88 66.388 183.854 66.3489 183.82C66.3097 183.786 66.2777 183.744 66.2547 183.697C66.2316 183.65 66.218 183.599 66.2147 183.547C66.2113 183.495 66.2183 183.443 66.2351 183.394C66.9046 181.448 71.1694 181.301 71.6515 181.294C71.704 181.29 71.7568 181.297 71.8064 181.316C71.856 181.334 71.9012 181.362 71.9391 181.399C71.977 181.435 72.0068 181.48 72.0264 181.529C72.0461 181.578 72.0553 181.63 72.0532 181.683C72.0541 181.735 72.0447 181.787 72.0257 181.835C72.0067 181.883 71.9783 181.928 71.9422 181.965C71.9062 182.002 71.8632 182.032 71.8156 182.053C71.768 182.074 71.7167 182.085 71.6649 182.086C70.0513 182.086 67.3532 182.575 66.9783 183.649C66.948 183.722 66.897 183.784 66.8315 183.829C66.766 183.873 66.689 183.897 66.6101 183.897Z" fill="white"/>
<path fill-rule="evenodd" clip-rule="evenodd" d="M53.9966 169.077C53.9966 169.077 54.2711 168.708 54.5456 168.802C55.8445 169.278 60.0959 170.634 65.9274 167.286C66.0881 167.199 66.4295 167.286 66.5969 167.219C66.5969 167.219 67.8087 171.07 66.9183 171.801C65.0436 173.358 62.2316 175.558 54.6862 173.519L53.9966 169.077Z" fill="#A3B2AF"/>
<path d="M56.4936 166.152C56.466 166.151 56.4396 166.14 56.4189 166.122C56.3982 166.104 56.3843 166.079 56.3797 166.051C56.3396 165.703 56.2927 165.32 56.2392 164.911C56.2363 164.896 56.2365 164.881 56.2397 164.867C56.243 164.852 56.2492 164.838 56.258 164.826C56.2668 164.814 56.278 164.804 56.2909 164.797C56.3038 164.79 56.3181 164.785 56.3329 164.783C56.348 164.78 56.3635 164.781 56.3784 164.785C56.3934 164.788 56.4074 164.795 56.4195 164.805C56.4315 164.814 56.4414 164.826 56.4484 164.84C56.4554 164.854 56.4594 164.869 56.4601 164.884C56.5203 165.293 56.5672 165.676 56.6074 166.025C56.6092 166.04 56.6081 166.055 56.6041 166.069C56.6 166.084 56.5931 166.097 56.5837 166.109C56.5744 166.121 56.5628 166.131 56.5497 166.138C56.5365 166.146 56.5219 166.15 56.5069 166.152H56.4936ZM56.1923 163.871C56.1653 163.871 56.139 163.862 56.1181 163.845C56.0973 163.828 56.0833 163.804 56.0785 163.777C56.0316 163.415 55.978 163.032 55.9177 162.636C55.9133 162.606 55.9211 162.575 55.9393 162.551C55.9575 162.526 55.9846 162.51 56.0148 162.506C56.045 162.501 56.0758 162.509 56.1002 162.527C56.1247 162.545 56.141 162.573 56.1454 162.603C56.199 162.999 56.2592 163.381 56.3061 163.743C56.31 163.773 56.3024 163.802 56.2849 163.826C56.2675 163.85 56.2414 163.866 56.2124 163.871H56.1923ZM55.8642 161.603C55.8366 161.602 55.8102 161.591 55.7895 161.573C55.7688 161.555 55.7549 161.53 55.7504 161.503C55.6968 161.134 55.6432 160.758 55.583 160.369C55.5789 160.339 55.5864 160.308 55.6037 160.283C55.6211 160.258 55.6471 160.241 55.6767 160.235C55.7077 160.231 55.739 160.239 55.764 160.258C55.789 160.277 55.8057 160.304 55.8107 160.335C55.8642 160.724 55.9245 161.1 55.9781 161.469C55.9819 161.498 55.9743 161.528 55.9568 161.552C55.9393 161.576 55.9134 161.592 55.8843 161.597L55.8642 161.603ZM55.5227 159.329C55.4957 159.329 55.4695 159.32 55.4486 159.303C55.4278 159.286 55.4137 159.262 55.409 159.235L55.2349 158.101C55.232 158.086 55.2321 158.071 55.2353 158.056C55.2385 158.041 55.2446 158.027 55.2534 158.014C55.2621 158.002 55.2733 157.991 55.2862 157.983C55.2991 157.975 55.3136 157.969 55.3286 157.967C55.3596 157.963 55.3909 157.971 55.4159 157.99C55.4408 158.009 55.4576 158.037 55.4625 158.068L55.6366 159.201C55.6385 159.216 55.6373 159.232 55.6332 159.246C55.6292 159.261 55.6223 159.274 55.613 159.286C55.6036 159.298 55.592 159.308 55.5788 159.315C55.5656 159.323 55.5511 159.327 55.5362 159.329H55.5227ZM55.1679 157.061C55.1417 157.061 55.1163 157.052 55.0965 157.035C55.0768 157.017 55.0641 156.993 55.0608 156.967L54.88 155.833C54.8778 155.818 54.8786 155.803 54.8823 155.788C54.886 155.774 54.8925 155.76 54.9015 155.748C54.9106 155.736 54.9218 155.725 54.9348 155.718C54.9478 155.71 54.9622 155.705 54.9771 155.703C54.9921 155.7 55.0073 155.701 55.0219 155.705C55.0366 155.709 55.0503 155.715 55.0625 155.724C55.0746 155.733 55.0849 155.744 55.0926 155.757C55.1004 155.77 55.1055 155.785 55.1077 155.8L55.2817 156.934C55.2846 156.948 55.2844 156.963 55.2812 156.978C55.2779 156.992 55.2717 157.006 55.2629 157.018C55.254 157.03 55.2429 157.04 55.23 157.048C55.2171 157.055 55.2028 157.06 55.188 157.061H55.1679ZM54.8131 154.8C54.7855 154.799 54.7591 154.788 54.7384 154.77C54.7177 154.752 54.7038 154.727 54.6993 154.7L54.5185 153.566C54.5146 153.536 54.5222 153.507 54.5397 153.483C54.5572 153.459 54.5832 153.443 54.6122 153.438C54.642 153.436 54.6718 153.444 54.6962 153.461C54.7207 153.478 54.7383 153.503 54.7461 153.532L54.9269 154.666C54.9308 154.695 54.9232 154.725 54.9057 154.749C54.8882 154.772 54.8622 154.789 54.8331 154.793L54.8131 154.8ZM54.4515 152.533C54.4245 152.533 54.3983 152.524 54.3774 152.507C54.3566 152.489 54.3425 152.465 54.3377 152.439L54.157 151.305C54.1541 151.29 54.1542 151.274 54.1574 151.259C54.1606 151.244 54.1667 151.23 54.1755 151.218C54.1842 151.205 54.1954 151.195 54.2083 151.186C54.2212 151.178 54.2356 151.173 54.2507 151.171C54.2652 151.168 54.2803 151.168 54.2948 151.171C54.3093 151.174 54.323 151.181 54.3349 151.189C54.3469 151.198 54.3569 151.21 54.3643 151.222C54.3717 151.235 54.3763 151.25 54.3779 151.264L54.5654 152.398C54.568 152.428 54.56 152.458 54.5428 152.482C54.5257 152.507 54.5005 152.525 54.4716 152.533H54.4515ZM54.0833 150.265C54.0566 150.264 54.031 150.254 54.0104 150.237C53.9898 150.22 53.9754 150.197 53.9695 150.171L53.7887 149.037C53.7858 149.022 53.786 149.007 53.7891 148.992C53.7923 148.977 53.7985 148.963 53.8073 148.95C53.816 148.938 53.8271 148.927 53.8401 148.919C53.853 148.911 53.8674 148.905 53.8825 148.903C53.8971 148.9 53.912 148.9 53.9265 148.903C53.941 148.907 53.9547 148.913 53.9667 148.922C53.9786 148.931 53.9887 148.942 53.9961 148.955C54.0035 148.968 54.0081 148.982 54.0096 148.997L54.1971 150.137C54.201 150.167 54.1934 150.196 54.176 150.22C54.1585 150.244 54.1324 150.26 54.1034 150.265H54.0833ZM53.7151 148.004C53.701 148.005 53.6869 148.003 53.6736 147.998C53.6602 147.994 53.6479 147.987 53.6373 147.977C53.6267 147.968 53.6181 147.957 53.612 147.944C53.6058 147.931 53.6021 147.917 53.6012 147.903L53.4138 146.776C53.4099 146.747 53.4175 146.717 53.435 146.693C53.4525 146.67 53.4785 146.654 53.5075 146.649C53.5225 146.645 53.5383 146.644 53.5536 146.647C53.5689 146.649 53.5834 146.656 53.5962 146.664C53.6089 146.673 53.6196 146.685 53.6274 146.698C53.6352 146.712 53.64 146.727 53.6415 146.743L53.8289 147.87C53.8327 147.899 53.8252 147.929 53.8077 147.952C53.7902 147.976 53.7643 147.992 53.7352 147.997L53.7151 148.004ZM53.3401 145.743C53.3135 145.742 53.2878 145.732 53.2672 145.715C53.2466 145.698 53.2323 145.675 53.2264 145.649L53.0389 144.515C53.0348 144.485 53.0422 144.455 53.0596 144.43C53.0769 144.405 53.103 144.387 53.1326 144.381C53.1476 144.378 53.163 144.378 53.1779 144.381C53.1928 144.385 53.2069 144.391 53.2194 144.399C53.2319 144.408 53.2425 144.419 53.2506 144.432C53.2586 144.445 53.2641 144.46 53.2665 144.475L53.454 145.609C53.458 145.639 53.4507 145.669 53.4333 145.694C53.4159 145.719 53.3898 145.736 53.3602 145.743H53.3401ZM52.9652 143.475C52.9386 143.474 52.9129 143.465 52.8923 143.448C52.8717 143.431 52.8573 143.407 52.8514 143.381L52.6639 142.254C52.661 142.239 52.6612 142.224 52.6644 142.209C52.6676 142.194 52.6737 142.18 52.6825 142.167C52.6912 142.155 52.7024 142.144 52.7153 142.136C52.7282 142.128 52.7426 142.122 52.7577 142.12C52.7726 142.117 52.788 142.117 52.8029 142.12C52.8178 142.124 52.832 142.13 52.8444 142.138C52.8569 142.147 52.8676 142.158 52.8757 142.171C52.8838 142.184 52.8892 142.199 52.8916 142.214L53.079 143.348C53.0819 143.362 53.0817 143.377 53.0784 143.392C53.0752 143.406 53.069 143.42 53.0602 143.432C53.0514 143.444 53.0402 143.454 53.0273 143.462C53.0144 143.469 53.0001 143.474 52.9853 143.475H52.9652ZM52.5903 141.214C52.5633 141.215 52.537 141.205 52.5161 141.188C52.4953 141.171 52.4813 141.147 52.4765 141.12L52.289 139.986C52.2834 139.971 52.2813 139.954 52.283 139.937C52.2846 139.92 52.29 139.904 52.2986 139.89C52.3072 139.875 52.3189 139.863 52.3328 139.853C52.3468 139.844 52.3626 139.838 52.3792 139.835C52.3958 139.833 52.4127 139.834 52.4288 139.839C52.4449 139.844 52.4597 139.852 52.4722 139.863C52.4847 139.874 52.4946 139.888 52.5011 139.904C52.5076 139.919 52.5106 139.936 52.5099 139.953L52.7041 141.08C52.7082 141.11 52.7008 141.141 52.6834 141.165C52.6661 141.19 52.64 141.208 52.6104 141.214H52.5903ZM52.2087 138.953C52.1811 138.952 52.1547 138.941 52.134 138.923C52.1133 138.905 52.0994 138.88 52.0948 138.853L51.9074 137.725C51.9045 137.71 51.9047 137.695 51.9078 137.68C51.911 137.665 51.9172 137.651 51.9259 137.638C51.9346 137.626 51.9458 137.615 51.9588 137.607C51.9717 137.599 51.986 137.594 52.0011 137.591C52.0157 137.588 52.0307 137.589 52.0452 137.592C52.0597 137.595 52.0734 137.601 52.0854 137.61C52.0973 137.619 52.1073 137.63 52.1147 137.643C52.1221 137.656 52.1268 137.67 52.1283 137.685L52.3224 138.819C52.3263 138.848 52.3188 138.878 52.3013 138.902C52.2838 138.925 52.2578 138.942 52.2288 138.947L52.2087 138.953ZM51.827 136.686C51.8003 136.685 51.7747 136.675 51.7541 136.658C51.7335 136.641 51.7192 136.618 51.7133 136.592L51.5258 135.458C51.5201 135.442 51.5181 135.425 51.5197 135.408C51.5214 135.392 51.5267 135.375 51.5353 135.361C51.5439 135.346 51.5556 135.334 51.5696 135.325C51.5835 135.315 51.5993 135.309 51.6159 135.307C51.6325 135.304 51.6494 135.305 51.6655 135.31C51.6816 135.315 51.6965 135.323 51.709 135.335C51.7215 135.346 51.7313 135.36 51.7379 135.375C51.7444 135.391 51.7474 135.407 51.7467 135.424L51.9409 136.558C51.9437 136.573 51.9435 136.588 51.9403 136.602C51.937 136.617 51.9308 136.63 51.922 136.642C51.9132 136.654 51.9019 136.664 51.889 136.672C51.8762 136.679 51.8619 136.684 51.8471 136.686H51.827ZM51.4454 134.425C51.4184 134.425 51.3922 134.416 51.3713 134.399C51.3504 134.381 51.3363 134.357 51.3316 134.331L51.1375 133.197C51.1334 133.167 51.1408 133.136 51.1582 133.111C51.1755 133.086 51.2015 133.069 51.2311 133.063C51.2461 133.06 51.2615 133.06 51.2764 133.063C51.2913 133.066 51.3054 133.072 51.3179 133.081C51.3304 133.09 51.3411 133.101 51.3492 133.114C51.3572 133.127 51.3627 133.141 51.3651 133.157L51.5593 134.29C51.5619 134.32 51.5539 134.35 51.5367 134.375C51.5196 134.399 51.4944 134.417 51.4655 134.425H51.4454ZM51.0571 132.157C51.0295 132.156 51.0031 132.145 50.9824 132.127C50.9616 132.108 50.9479 132.084 50.9433 132.056L50.7491 130.922C50.7462 130.907 50.7464 130.892 50.7496 130.877C50.7528 130.862 50.7589 130.848 50.7677 130.835C50.7764 130.823 50.7875 130.812 50.8004 130.804C50.8134 130.796 50.8278 130.791 50.8428 130.788C50.8578 130.785 50.8732 130.785 50.8881 130.789C50.903 130.792 50.9172 130.798 50.9296 130.807C50.9421 130.816 50.9528 130.827 50.9609 130.84C50.969 130.853 50.9744 130.867 50.9768 130.882L51.1709 132.023C51.1738 132.037 51.1736 132.052 51.1703 132.067C51.1671 132.081 51.1608 132.095 51.152 132.107C51.1432 132.119 51.1321 132.129 51.1192 132.137C51.1063 132.144 51.0919 132.149 51.0772 132.15L51.0571 132.157Z" fill="#A3B2AF"/>
<path d="M30.7974 173.015C30.7678 173.013 30.7397 173.001 30.7187 172.98C30.6977 172.959 30.6852 172.93 30.6836 172.901V171.727C30.6836 171.696 30.6956 171.667 30.7169 171.646C30.7383 171.625 30.7673 171.613 30.7974 171.613C30.8126 171.612 30.8278 171.614 30.8421 171.619C30.8563 171.625 30.8693 171.633 30.8801 171.644C30.8908 171.655 30.8992 171.668 30.9046 171.682C30.91 171.696 30.9122 171.711 30.9112 171.727V172.874C30.9153 172.891 30.9155 172.909 30.9117 172.926C30.9079 172.943 30.9001 172.959 30.8891 172.973C30.878 172.986 30.8641 172.997 30.8482 173.004C30.8323 173.012 30.8149 173.015 30.7974 173.015ZM30.7974 170.72C30.7673 170.72 30.7383 170.708 30.7169 170.687C30.6956 170.665 30.6836 170.636 30.6836 170.606V169.466C30.6835 169.435 30.6954 169.405 30.7165 169.383C30.7377 169.36 30.7667 169.347 30.7974 169.345C30.813 169.345 30.8283 169.348 30.8426 169.354C30.8568 169.36 30.8697 169.369 30.8804 169.381C30.8911 169.392 30.8993 169.405 30.9046 169.42C30.9099 169.435 30.9121 169.45 30.9112 169.466V170.606C30.9122 170.621 30.91 170.637 30.9046 170.651C30.8992 170.665 30.8908 170.678 30.8801 170.689C30.8693 170.7 30.8563 170.708 30.8421 170.714C30.8278 170.719 30.8126 170.721 30.7974 170.72ZM30.7974 168.432C30.7678 168.431 30.7397 168.418 30.7187 168.397C30.6977 168.376 30.6852 168.348 30.6836 168.318V167.171C30.6852 167.141 30.6977 167.113 30.7187 167.092C30.7397 167.071 30.7678 167.059 30.7974 167.057C30.8276 167.057 30.8565 167.069 30.8779 167.09C30.8992 167.112 30.9112 167.141 30.9112 167.171V168.318C30.9112 168.349 30.8992 168.378 30.8779 168.399C30.8565 168.42 30.8276 168.432 30.7974 168.432ZM30.7974 166.145C30.7678 166.143 30.7397 166.13 30.7187 166.109C30.6977 166.088 30.6852 166.06 30.6836 166.031V164.883C30.6836 164.853 30.6956 164.824 30.7169 164.803C30.7383 164.781 30.7673 164.769 30.7974 164.769C30.8126 164.768 30.8278 164.771 30.8421 164.776C30.8563 164.781 30.8693 164.79 30.8801 164.8C30.8908 164.811 30.8992 164.824 30.9046 164.839C30.91 164.853 30.9122 164.868 30.9112 164.883V166.031C30.9112 166.061 30.8992 166.09 30.8779 166.111C30.8565 166.133 30.8276 166.145 30.7974 166.145ZM30.7974 163.85C30.7673 163.85 30.7383 163.838 30.7169 163.817C30.6956 163.795 30.6836 163.766 30.6836 163.736V162.596C30.6835 162.565 30.6954 162.535 30.7165 162.512C30.7377 162.49 30.7667 162.476 30.7974 162.475C30.813 162.475 30.8283 162.478 30.8426 162.484C30.8568 162.49 30.8697 162.499 30.8804 162.51C30.8911 162.522 30.8993 162.535 30.9046 162.55C30.9099 162.564 30.9121 162.58 30.9112 162.596V163.736C30.9122 163.751 30.91 163.767 30.9046 163.781C30.8992 163.795 30.8908 163.808 30.8801 163.819C30.8693 163.83 30.8563 163.838 30.8421 163.843C30.8278 163.849 30.8126 163.851 30.7974 163.85ZM30.7974 161.562C30.7678 161.561 30.7397 161.548 30.7187 161.527C30.6977 161.506 30.6852 161.478 30.6836 161.448V160.321C30.6852 160.291 30.6977 160.263 30.7187 160.242C30.7397 160.221 30.7678 160.209 30.7974 160.207C30.8276 160.207 30.8565 160.219 30.8779 160.24C30.8992 160.262 30.9112 160.291 30.9112 160.321V161.468C30.9064 161.495 30.8924 161.519 30.8716 161.536C30.8507 161.553 30.8244 161.563 30.7974 161.562ZM30.7974 159.274C30.7678 159.273 30.7397 159.26 30.7187 159.239C30.6977 159.218 30.6852 159.19 30.6836 159.16V158.013C30.6836 157.983 30.6956 157.954 30.7169 157.933C30.7383 157.911 30.7673 157.899 30.7974 157.899C30.8126 157.898 30.8278 157.9 30.8421 157.906C30.8563 157.911 30.8693 157.92 30.8801 157.93C30.8908 157.941 30.8992 157.954 30.9046 157.968C30.91 157.983 30.9122 157.998 30.9112 158.013V159.16C30.9112 159.175 30.9083 159.19 30.9025 159.204C30.8968 159.218 30.8884 159.23 30.8779 159.241C30.8673 159.252 30.8548 159.26 30.841 159.266C30.8272 159.272 30.8124 159.274 30.7974 159.274ZM30.7974 156.98C30.7673 156.98 30.7383 156.968 30.7169 156.947C30.6956 156.925 30.6836 156.896 30.6836 156.866V155.725C30.6836 155.71 30.6865 155.696 30.6923 155.682C30.698 155.668 30.7064 155.655 30.7169 155.645C30.7275 155.634 30.7401 155.626 30.7539 155.62C30.7677 155.614 30.7825 155.611 30.7974 155.611C30.8126 155.61 30.8278 155.613 30.8421 155.618C30.8563 155.623 30.8693 155.632 30.8801 155.642C30.8908 155.653 30.8992 155.666 30.9046 155.681C30.91 155.695 30.9122 155.71 30.9112 155.725V156.866C30.9104 156.88 30.9068 156.894 30.9006 156.906C30.8944 156.919 30.8857 156.931 30.8752 156.94C30.8646 156.949 30.8523 156.956 30.839 156.961C30.8256 156.966 30.8115 156.967 30.7974 156.967V156.98ZM30.7974 154.692C30.7678 154.691 30.7397 154.678 30.7187 154.657C30.6977 154.636 30.6852 154.608 30.6836 154.578V153.431C30.6852 153.401 30.6977 153.373 30.7187 153.352C30.7397 153.331 30.7678 153.318 30.7974 153.317C30.8276 153.317 30.8565 153.329 30.8779 153.35C30.8992 153.372 30.9112 153.401 30.9112 153.431V154.578C30.9112 154.593 30.9083 154.608 30.9025 154.622C30.8968 154.636 30.8884 154.648 30.8779 154.659C30.8673 154.669 30.8548 154.678 30.841 154.683C30.8272 154.689 30.8124 154.692 30.7974 154.692ZM30.7974 152.404C30.7678 152.403 30.7397 152.39 30.7187 152.369C30.6977 152.348 30.6852 152.32 30.6836 152.29V151.143C30.6836 151.113 30.6956 151.084 30.7169 151.062C30.7383 151.041 30.7673 151.029 30.7974 151.029C30.8126 151.028 30.8278 151.03 30.8421 151.036C30.8563 151.041 30.8693 151.049 30.8801 151.06C30.8908 151.071 30.8992 151.084 30.9046 151.098C30.91 151.112 30.9122 151.128 30.9112 151.143V152.27C30.9142 152.287 30.9135 152.304 30.9091 152.32C30.9047 152.336 30.8968 152.351 30.886 152.364C30.8751 152.377 30.8615 152.387 30.8462 152.394C30.8308 152.401 30.8142 152.405 30.7974 152.404ZM30.7974 150.11C30.7673 150.11 30.7383 150.098 30.7169 150.076C30.6956 150.055 30.6836 150.026 30.6836 149.996V148.855C30.6836 148.825 30.6956 148.796 30.7169 148.775C30.7383 148.753 30.7673 148.741 30.7974 148.741C30.8126 148.74 30.8278 148.742 30.8421 148.748C30.8563 148.753 30.8693 148.762 30.8801 148.772C30.8908 148.783 30.8992 148.796 30.9046 148.81C30.91 148.825 30.9122 148.84 30.9112 148.855V149.996C30.9122 150.011 30.91 150.026 30.9046 150.041C30.8992 150.055 30.8908 150.068 30.8801 150.079C30.8693 150.089 30.8563 150.098 30.8421 150.103C30.8278 150.109 30.8126 150.111 30.7974 150.11ZM30.7974 147.822C30.7678 147.82 30.7397 147.808 30.7187 147.787C30.6977 147.766 30.6852 147.738 30.6836 147.708V146.561C30.6852 146.531 30.6977 146.503 30.7187 146.482C30.7397 146.461 30.7678 146.448 30.7974 146.447C30.8276 146.447 30.8565 146.459 30.8779 146.48C30.8992 146.501 30.9112 146.53 30.9112 146.561V147.708C30.9112 147.723 30.9083 147.738 30.9025 147.752C30.8968 147.765 30.8884 147.778 30.8779 147.789C30.8673 147.799 30.8548 147.808 30.841 147.813C30.8272 147.819 30.8124 147.822 30.7974 147.822ZM30.7974 145.534C30.7678 145.533 30.7397 145.52 30.7187 145.499C30.6977 145.478 30.6852 145.45 30.6836 145.42V144.273C30.6836 144.243 30.6956 144.214 30.7169 144.192C30.7383 144.171 30.7673 144.159 30.7974 144.159C30.8126 144.158 30.8278 144.16 30.8421 144.165C30.8563 144.171 30.8693 144.179 30.8801 144.19C30.8908 144.201 30.8992 144.214 30.9046 144.228C30.91 144.242 30.9122 144.258 30.9112 144.273V145.42C30.9153 145.437 30.9155 145.455 30.9117 145.472C30.9079 145.489 30.9001 145.505 30.8891 145.519C30.878 145.532 30.8641 145.543 30.8482 145.551C30.8323 145.558 30.8149 145.561 30.7974 145.561V145.534ZM30.7974 143.24C30.7673 143.24 30.7383 143.228 30.7169 143.206C30.6956 143.185 30.6836 143.156 30.6836 143.126V141.985C30.6835 141.954 30.6954 141.924 30.7165 141.902C30.7377 141.879 30.7667 141.866 30.7974 141.864C30.813 141.864 30.8283 141.867 30.8426 141.874C30.8568 141.88 30.8697 141.889 30.8804 141.9C30.8911 141.911 30.8993 141.925 30.9046 141.939C30.9099 141.954 30.9121 141.97 30.9112 141.985V143.126C30.9122 143.141 30.91 143.156 30.9046 143.17C30.8992 143.185 30.8908 143.198 30.8801 143.208C30.8693 143.219 30.8563 143.228 30.8421 143.233C30.8278 143.238 30.8126 143.241 30.7974 143.24ZM30.7974 140.952C30.7678 140.95 30.7397 140.938 30.7187 140.917C30.6977 140.896 30.6852 140.867 30.6836 140.838V139.691C30.6852 139.661 30.6977 139.633 30.7187 139.612C30.7397 139.591 30.7678 139.578 30.7974 139.576C30.8276 139.576 30.8565 139.588 30.8779 139.61C30.8992 139.631 30.9112 139.66 30.9112 139.691V140.865C30.9051 140.89 30.8905 140.913 30.8698 140.928C30.8491 140.944 30.8235 140.953 30.7974 140.952ZM30.7974 138.664C30.7678 138.662 30.7397 138.65 30.7187 138.629C30.6977 138.608 30.6852 138.58 30.6836 138.55V137.403C30.6836 137.372 30.6956 137.343 30.7169 137.322C30.7383 137.301 30.7673 137.289 30.7974 137.289C30.8126 137.288 30.8278 137.29 30.8421 137.295C30.8563 137.301 30.8693 137.309 30.8801 137.32C30.8908 137.331 30.8992 137.344 30.9046 137.358C30.91 137.372 30.9122 137.387 30.9112 137.403V138.55C30.9112 138.565 30.9083 138.58 30.9025 138.594C30.8968 138.607 30.8884 138.62 30.8779 138.631C30.8673 138.641 30.8548 138.65 30.841 138.655C30.8272 138.661 30.8124 138.664 30.7974 138.664ZM30.7974 136.369C30.7673 136.369 30.7383 136.357 30.7169 136.336C30.6956 136.315 30.6836 136.286 30.6836 136.255V135.115C30.6835 135.084 30.6954 135.054 30.7165 135.032C30.7377 135.009 30.7667 134.996 30.7974 134.994C30.813 134.994 30.8283 134.997 30.8426 135.003C30.8568 135.01 30.8697 135.019 30.8804 135.03C30.8911 135.041 30.8993 135.055 30.9046 135.069C30.9099 135.084 30.9121 135.099 30.9112 135.115V136.255C30.9122 136.271 30.91 136.286 30.9046 136.3C30.8992 136.314 30.8908 136.327 30.8801 136.338C30.8693 136.349 30.8563 136.357 30.8421 136.363C30.8278 136.368 30.8126 136.37 30.7974 136.369ZM30.7974 134.082C30.7678 134.08 30.7397 134.068 30.7187 134.046C30.6977 134.025 30.6852 133.997 30.6836 133.968V132.814C30.6852 132.784 30.6977 132.756 30.7187 132.735C30.7397 132.714 30.7678 132.701 30.7974 132.7C30.8124 132.7 30.8272 132.703 30.841 132.708C30.8548 132.714 30.8673 132.722 30.8779 132.733C30.8884 132.744 30.8968 132.756 30.9025 132.77C30.9083 132.784 30.9112 132.799 30.9112 132.814V133.961C30.9121 133.976 30.9099 133.992 30.9046 134.007C30.8993 134.021 30.8911 134.035 30.8804 134.046C30.8697 134.057 30.8568 134.066 30.8426 134.072C30.8283 134.079 30.813 134.082 30.7974 134.082ZM30.7974 131.794C30.7678 131.792 30.7397 131.78 30.7187 131.759C30.6977 131.738 30.6852 131.71 30.6836 131.68V130.533C30.6836 130.502 30.6956 130.473 30.7169 130.452C30.7383 130.431 30.7673 130.418 30.7974 130.418C30.8126 130.417 30.8278 130.42 30.8421 130.425C30.8563 130.431 30.8693 130.439 30.8801 130.45C30.8908 130.46 30.8992 130.473 30.9046 130.488C30.91 130.502 30.9122 130.517 30.9112 130.533V131.68C30.9112 131.71 30.8992 131.739 30.8779 131.76C30.8565 131.782 30.8276 131.794 30.7974 131.794ZM30.7974 129.499C30.7673 129.499 30.7383 129.487 30.7169 129.466C30.6956 129.445 30.6836 129.416 30.6836 129.385V128.245C30.6836 128.23 30.6865 128.215 30.6923 128.201C30.698 128.187 30.7064 128.175 30.7169 128.164C30.7275 128.153 30.7401 128.145 30.7539 128.139C30.7677 128.134 30.7825 128.131 30.7974 128.131C30.8126 128.13 30.8278 128.132 30.8421 128.137C30.8563 128.143 30.8693 128.151 30.8801 128.162C30.8908 128.173 30.8992 128.186 30.9046 128.2C30.91 128.214 30.9122 128.229 30.9112 128.245V129.385C30.9122 129.401 30.91 129.416 30.9046 129.43C30.8992 129.444 30.8908 129.457 30.8801 129.468C30.8693 129.479 30.8563 129.487 30.8421 129.493C30.8278 129.498 30.8126 129.5 30.7974 129.499ZM30.7974 127.212C30.7678 127.21 30.7397 127.197 30.7187 127.176C30.6977 127.155 30.6852 127.127 30.6836 127.097V126.064C30.6852 126.035 30.6977 126.006 30.7187 125.985C30.7397 125.964 30.7678 125.952 30.7974 125.95C30.8124 125.95 30.8272 125.953 30.841 125.959C30.8548 125.965 30.8673 125.973 30.8779 125.984C30.8884 125.994 30.8968 126.007 30.9025 126.021C30.9083 126.034 30.9112 126.049 30.9112 126.064V127.097C30.9112 127.112 30.9083 127.127 30.9025 127.141C30.8968 127.155 30.8884 127.168 30.8779 127.178C30.8673 127.189 30.8548 127.197 30.841 127.203C30.8272 127.209 30.8124 127.212 30.7974 127.212Z" fill="#A3B2AF"/>
<path d="M95.1248 67.782C95.5604 67.6617 96.0128 67.6141 96.4638 67.6411C97.1544 67.69 97.8197 67.9215 98.392 68.312C98.7997 68.5821 99.1538 68.9256 99.4364 69.3251C99.62 69.5791 99.7686 69.8566 99.8783 70.1503L99.9185 70.2241C100.15 70.8875 100.201 71.6009 100.066 72.2906C100.033 72.4897 99.9747 72.6837 99.8917 72.8675C99.6563 73.5041 99.2567 74.0666 98.7335 74.4978C98.6379 74.5781 98.5373 74.6521 98.4321 74.7193C97.2136 75.6049 92.045 78.8856 90.7194 78.1677C90.0003 77.676 89.4072 77.0211 88.9884 76.2563C88.5696 75.4916 88.3368 74.6385 88.3091 73.7665C88.3961 72.2838 93.297 68.4932 94.6896 67.9229C94.8389 67.8904 94.9847 67.8432 95.1248 67.782Z" fill="#EAB27F"/>
<path d="M101.351 63.71C101.88 64.1125 102.215 64.8639 101.297 65.7227C100.377 66.65 99.3901 67.5089 98.3448 68.2923L96.0015 68.0642L95.111 67.9703L94.7026 67.93L95.1512 67.608C96.1756 66.8431 98.693 64.9243 100.34 63.4818C100.521 63.3275 100.989 63.4215 101.351 63.71Z" fill="#EAB27F"/>
<path d="M99.604 70.2988C101.027 69.4323 102.406 68.4941 103.735 67.4877C105.429 66.2196 103.487 64.804 102.992 65.1797C100.729 66.8033 97.7495 68.7221 97.7495 68.7221L99.604 70.2988Z" fill="#EAB27F"/>
<path d="M99.2089 73.1835C100.911 72.4459 102.572 71.6149 104.183 70.6944C105.958 69.7484 104.357 68.1517 103.822 68.3999C101.472 69.574 98.3921 70.9091 98.3921 70.9091L99.2089 73.1835Z" fill="#EAB27F"/>
<path d="M97.314 75.2901C98.9111 75.2205 100.502 75.0412 102.074 74.7534C103.748 74.5856 102.991 72.8211 102.53 72.8681C100.327 73.0493 97.5148 73.1231 97.5148 73.1231L97.314 75.2901Z" fill="#EAB27F"/>
<path d="M95.3123 65.8903C95.2521 66.4137 95.2119 67.0041 95.1516 67.6012V67.7823V67.9635C95.1516 68.3258 95.098 68.6948 95.0846 69.0638C94.9775 71.1704 94.9374 73.0893 94.9374 73.0893L93.7323 71.6937L92.5405 70.3519V70.3049C92.5651 69.0065 92.6927 67.712 92.9221 66.4338C93.2033 64.2869 95.3726 65.2932 95.3123 65.8903Z" fill="#EAB27F"/>
<path fill-rule="evenodd" clip-rule="evenodd" d="M30.1348 63.9585L32.5585 63.5493L43.1435 64.2135L48.4394 60.6845L49.8119 60.5234L50.5684 65.9042L45.0382 69.9162L34.413 70.6475L31.6881 68.514L30.1147 66.5952L30.1348 63.9585Z" fill="#A8B2EF"/>
<path d="M74.4703 89.9292C73.6529 89.9406 72.8376 89.8413 72.0467 89.634C69.3686 88.9631 65.693 86.2459 59.0447 75.2496C55.7507 69.8018 52.7579 65.1859 52.6709 64.9443L59.366 61.3281C62.1579 64.0852 64.6285 67.1507 66.7307 70.466C71.5311 78.4364 74.0954 79.8588 74.4569 80.06C74.8452 80.06 77.222 79.8789 83.2074 76.0748C85.6136 74.5376 87.9399 72.8783 90.1771 71.1033C90.1771 71.1033 93.1766 71.8413 94.703 73.9883C95.7155 75.3852 96.289 77.0531 96.35 78.7786C93.6924 80.8722 90.9305 82.8294 88.0748 84.6424C82.404 88.2116 78.0121 89.9292 74.4703 89.9292Z" fill="#6E79E0"/>
<path fill-rule="evenodd" clip-rule="evenodd" d="M54.9536 43.4681C52.0948 43.032 50.2001 39.8922 50.7022 36.4571C51.2043 33.022 53.9493 30.5933 56.8015 31.0093C59.6536 31.4252 61.555 34.5785 61.0529 38.0136C60.5507 41.4487 57.8124 43.8975 54.9536 43.4681Z" fill="#EAB27F"/>
<path d="M27.7582 127.554C27.3029 126.131 23.9219 120.945 22.4021 120.731C21.5333 120.69 20.6673 120.856 19.8748 121.215C19.0824 121.574 18.386 122.116 17.8427 122.797C17.0191 124.038 19.9048 129.466 20.6748 130.754L20.889 131.063C21.2799 131.616 21.8117 132.054 22.4289 132.331C22.6129 132.418 22.8031 132.492 22.998 132.552C23.6757 132.75 24.3957 132.75 25.0734 132.552L25.1605 132.512C25.4639 132.429 25.7528 132.3 26.0175 132.129C26.4358 131.873 26.8072 131.546 27.1155 131.163C27.5391 130.622 27.8055 129.975 27.8854 129.291C27.9549 128.847 27.9549 128.394 27.8854 127.95C27.8361 127.82 27.7937 127.688 27.7582 127.554Z" fill="#EAB27F"/>
<path d="M31.7819 133.484C30.4428 131.747 28.7489 129.076 28.066 127.996C27.9721 127.836 27.8693 127.682 27.7581 127.533L27.6911 127.942L27.5305 128.815L27.1421 131.143C27.8407 132.248 28.6171 133.302 29.4654 134.296C30.2487 135.276 31.0186 134.967 31.4739 134.484C31.802 134.155 31.9158 133.699 31.7819 133.484Z" fill="#EAB27F"/>
<path d="M26.7605 130.532C26.7605 130.532 28.4477 133.665 29.9005 136.027C30.2152 136.564 28.6754 138.402 27.5305 136.604C26.6333 135.202 25.7965 133.773 25.0332 132.283L26.7605 130.532Z" fill="#EAB27F"/>
<path d="M24.5246 131.029C24.5246 131.029 25.636 134.196 26.6202 136.638C26.8277 137.168 25.1137 138.651 24.317 136.813C23.5269 135.132 22.823 133.412 22.208 131.66L24.5246 131.029Z" fill="#EAB27F"/>
<path d="M22.4024 129.969C22.4024 129.969 22.2818 132.78 22.2818 134.988C22.2818 135.471 20.4742 136.095 20.4274 134.411C20.2622 132.822 20.204 131.224 20.2533 129.627L22.4024 129.969Z" fill="#EAB27F"/>
<path d="M29.4454 125.877C28.1889 125.551 26.9083 125.327 25.6158 125.206H25.5622L24.096 126.293L22.603 127.38C22.603 127.38 24.5111 127.561 26.5799 127.836C26.9481 127.876 27.303 127.943 27.6712 127.977H27.852H28.0395C28.6287 128.064 29.2178 128.151 29.7333 128.245C30.3492 128.433 31.5209 126.306 29.4454 125.877Z" fill="#EAB27F"/>
<path fill-rule="evenodd" clip-rule="evenodd" d="M55.5698 37.7185C63.5036 19.2348 47.7565 14.8135 35.3437 14.8135C34.9554 14.8135 34.5671 14.8135 34.2056 14.8135C44.6701 17.1684 52.952 25.7158 55.5698 37.6916V37.7185Z" fill="#3C2708"/>
<path fill-rule="evenodd" clip-rule="evenodd" d="M63.8917 115.075C59.4327 116.746 52.3225 120.114 45.8148 120.523C39.7088 119.933 33.7635 120.02 26.5462 115.874C26.5462 113.975 27.0751 112.76 27.0952 111.023C27.209 96.8263 27.0283 87.9837 26.7069 76.8532L22.6161 77.8394L18.3179 72.2709C20.2394 68.3594 22.3349 66.0649 24.5376 65.4007C25.9302 64.9915 27.7848 64.5084 30.1147 63.9851C31.1391 65.1525 36.6023 70.9223 43.2774 68.3796C43.2774 68.3796 48.7406 66.454 49.7918 60.55C50.6844 60.4561 51.528 60.342 52.3225 60.2078C53.6615 59.9999 55.7772 59.4967 57.6786 60.2951C59.3391 61.0967 60.7474 62.3408 61.7493 63.8912C62.1514 64.9979 62.2755 66.1868 62.1108 67.3531L57.4242 71.4926C62.2648 84.9578 63.8181 103.878 63.8917 115.075Z" fill="#6E79E0"/>
<path fill-rule="evenodd" clip-rule="evenodd" d="M59.6405 78.3361C60.531 81.6571 60.8992 84.6561 61.5152 87.9772C57.617 87.0741 53.6322 86.5994 49.6313 86.5615C41.7243 86.5615 34.373 88.6548 27.2427 92.0429C27.1088 88.6078 26.9615 83.4418 26.8008 80.1275C33.8441 76.8467 40.4455 74.8138 48.2253 74.4247C51.7966 74.1902 55.3833 74.4157 58.8974 75.0956L59.6405 78.3361Z" fill="#A8B2EF"/>
<path d="M22.1474 13.1231C36.408 9.29891 50.7825 16.9205 54.2841 30.1576C55.6231 35.0821 56.5738 41.2881 54.833 45.8234C51.9073 53.5188 49.718 57.4101 40.8469 60.2481C22.4286 66.1387 8.42235 56.0146 4.94757 42.7574C1.47279 29.5001 7.8934 16.9473 22.1541 13.1231H22.1474Z" fill="#EAB27F"/>
<path fill-rule="evenodd" clip-rule="evenodd" d="M37.6802 34.3302L37.7204 35.0011C37.861 37.4298 38.0685 40.4288 40.1909 40.7776L40.5994 40.8179C42.1995 41.0527 44.1478 41.3211 44.4892 43.6827C44.5571 44.1484 44.4599 44.6232 44.2147 45.0245C43.7476 45.6933 43.0824 46.1979 42.3133 46.467C41.7034 46.7184 41.0681 46.9028 40.4186 47.0171C40.2491 47.0739 40.0658 47.0739 39.8964 47.0171L40.1909 46.5139C40.1909 46.5139 40.191 46.467 40.3249 46.4469C40.9358 46.3385 41.5345 46.17 42.1124 45.9437C42.7712 45.7044 43.3428 45.2719 43.7528 44.7025C43.9345 44.418 44.0081 44.0775 43.9603 43.7431C43.6858 41.8176 41.9518 41.5895 40.5592 41.3613L40.1441 41.2942C37.5397 40.8783 37.3589 37.6311 37.1982 34.9944L37.1514 34.2832H37.6802V34.3302Z" fill="#D08158"/>
<path fill-rule="evenodd" clip-rule="evenodd" d="M31.5738 17.7718C37.8606 16.9198 57.2363 19.7175 59.6935 28.1911C60.1019 21.274 57.1761 12.0892 49.5236 8.19789C44.837 5.81614 38.2757 6.43339 29.9604 6.34617C28.6213 6.34617 27.2153 7.12442 25.9834 7.21164C26.2308 7.01364 26.4553 6.78861 26.6529 6.54073C28.2798 4.77623 28.0924 3.79669 28.9159 1.5961C28.9159 1.52901 29.4649 -0.215369 29.2372 0.0127418C27.8982 1.27406 26.2445 1.87117 25.4009 3.83695C24.872 5.0513 25.0997 5.46727 24.1891 6.70175C24.1116 5.89146 23.9431 5.0925 23.687 4.32001C23.326 3.32247 22.7393 2.42229 21.973 1.69003C21.8123 1.54913 22.0132 4.59509 22.1739 5.23916C22.3065 5.75802 22.4071 6.28456 22.4752 6.8158C22.589 6.33946 19.8707 4.66217 19.4556 4.41393C18.6124 3.93199 17.6931 3.59842 16.7374 3.42769C16.5098 3.3606 19.0004 6.06439 19.5494 6.65479C19.9927 7.1906 20.5671 7.60206 21.2165 7.84902H21.1026C19.928 7.69119 18.7666 7.44675 17.6279 7.11771C16.812 6.89625 16.0167 6.60444 15.2511 6.24553C14.4945 5.80944 14.9297 6.40655 15.2511 6.9567C15.696 7.77532 16.3712 8.44488 17.1927 8.88222C-10.7997 18.067 0.280771 60.0394 15.8939 58.5768C13.2894 58.1407 13.1287 44.5614 17.3802 41.3746C34.8612 28.2515 31.3395 17.7651 31.5671 17.745L31.5738 17.7718Z" fill="#3C2708"/>
<path fill-rule="evenodd" clip-rule="evenodd" d="M24.2161 38.611L23.2788 37.1215L29.4718 31.875L30.0007 34.4647L24.2161 38.611Z" fill="#3C2708"/>
<path fill-rule="evenodd" clip-rule="evenodd" d="M42.1594 29.9295L41.6572 27.7557L47.6896 26.5615L48.3725 28.6212L42.1594 29.9295Z" fill="#3C2708"/>
<path fill-rule="evenodd" clip-rule="evenodd" d="M31.0053 43.2809C31.5517 43.0737 31.9967 42.6621 32.2464 42.1328C32.4962 41.6035 32.5312 40.9977 32.3443 40.443C32.0229 39.1817 30.9049 38.3833 29.8336 38.7053C29.2893 38.9153 28.8465 39.3272 28.5972 39.8557C28.3479 40.3841 28.3111 40.9884 28.4946 41.5433C28.5429 41.8239 28.6465 42.092 28.7995 42.332C28.9525 42.572 29.1518 42.7789 29.3856 42.9408C29.6194 43.1026 29.8831 43.216 30.1612 43.2744C30.4393 43.3329 30.7263 43.3351 31.0053 43.2809Z" fill="black"/>
<path fill-rule="evenodd" clip-rule="evenodd" d="M47.4352 38.2155C47.9816 38.0082 48.4265 37.5967 48.6763 37.0673C48.926 36.538 48.9611 35.9323 48.7742 35.3775C48.7274 35.0953 48.6249 34.8253 48.4728 34.5832C48.3207 34.3411 48.1219 34.1318 47.8882 33.9676C47.6545 33.8033 47.3904 33.6873 47.1115 33.6265C46.8325 33.5656 46.5443 33.561 46.2635 33.613C45.7181 33.8217 45.2743 34.2334 45.0248 34.7623C44.7752 35.2912 44.7393 35.8962 44.9245 36.451C44.9687 36.7344 45.0696 37.006 45.2209 37.2495C45.3723 37.493 45.5711 37.7034 45.8055 37.8681C46.0399 38.0328 46.305 38.1485 46.585 38.2082C46.8651 38.2679 47.1542 38.2704 47.4352 38.2155Z" fill="black"/>
<path fill-rule="evenodd" clip-rule="evenodd" d="M45.7883 53.4046C44.5363 56.0882 41.5167 56.6518 39.0127 55.1154C37.6929 54.2696 36.6645 53.0376 36.0669 51.5864L36.6962 51.318L44.6835 47.9165L45.9556 47.373C46.6319 49.9695 46.4578 51.9889 45.7883 53.4046Z" fill="#5D262C"/>
<path fill-rule="evenodd" clip-rule="evenodd" d="M45.7883 53.405C44.5363 56.0887 41.5167 56.6523 39.0127 55.1159C39.9062 54.2808 40.9961 53.686 42.1808 53.3868C43.3655 53.0877 44.6066 53.0939 45.7883 53.405Z" fill="#F27D73"/>
<path fill-rule="evenodd" clip-rule="evenodd" d="M36.6626 51.2916L44.6968 47.8633C44.1076 52.2309 39.6352 53.4788 36.6626 51.2916Z" fill="#FFF6F0"/>
<path fill-rule="evenodd" clip-rule="evenodd" d="M24.1561 67.3735C25.8968 67.0314 26.4191 68.93 27.584 70.3054C28.1457 70.9827 28.5198 71.796 28.669 72.6638C28.8183 73.5316 28.7374 74.4235 28.4343 75.25C28.3966 75.3916 28.3496 75.5306 28.2937 75.666C28.1598 76.0551 27.9523 76.5583 27.7916 77.1085C27.2694 78.712 26.7672 80.5637 26.2584 82.6033C24.7762 88.7995 24.0035 95.1448 23.9552 101.516C23.8667 109.513 25.1881 117.462 27.8585 124.998C27.9095 125.233 27.9475 125.47 27.9723 125.709C27.7715 125.824 25.2341 128.138 23.6808 128.802C20.2529 130.198 18.9004 128.688 18.7197 128.232C15.6734 119.631 14.1573 110.562 14.2406 101.436C14.2874 94.2906 17.3471 75.0756 17.9631 73.2239C18.5732 71.7928 19.3997 70.4645 20.4135 69.2856C21.525 68.4102 22.7963 67.7607 24.1561 67.3735Z" fill="#6E79E0"/>
<path fill-rule="evenodd" clip-rule="evenodd" d="M15.1645 59.1273C12.4262 60.0465 9.31966 58.1009 8.22166 54.8C7.12365 51.4991 8.46944 48.0908 11.2145 47.1717C13.9595 46.2525 17.066 48.2049 18.164 51.5058C19.262 54.8067 17.9095 58.2149 15.1645 59.1273Z" fill="#EAB27F"/>
<path fill-rule="evenodd" clip-rule="evenodd" d="M48.4395 60.6846C47.9168 62.2035 47.0443 63.5775 45.8927 64.6954C44.7411 65.8133 43.3428 66.6434 41.8113 67.1186C36.5556 68.6081 32.5586 63.5494 32.5586 63.5494L32.7862 63.3884C33.4557 63.2542 34.1252 63.1133 34.8416 62.9523L45.7882 60.9395C46.7255 60.8456 47.5892 60.7785 48.4395 60.6846Z" fill="#EAB27F"/>
<path fill-rule="evenodd" clip-rule="evenodd" d="M35.8057 60.3418L35.4375 63.475L43.8265 61.7574L43.5989 58.1211L35.8057 60.3418Z" fill="#EAB27F"/>
<path d="M58.1742 73.7598L57.0562 65.8564L59.366 75.8866L58.1742 73.7598Z" fill="#5E6ECC"/>
</g>
<defs>
<clipPath id="clip0">
<rect width="105" height="198" fill="white"/>
</clipPath>
</defs>
</svg>
