<svg width="353" height="230" viewBox="0 0 353 230" fill="none" xmlns="http://www.w3.org/2000/svg">
<g clip-path="url(#clip0)">
<path d="M268.45 43.8003L289.06 55.7303L287.58 56.6003L195.65 110.28L195.53 110.34L193.65 109.16L175.31 97.7503L173.09 96.3803L172.81 96.1903L165.29 91.5203L254.18 38.5703L256.75 37.0303L257.24 37.3103L268.45 43.8003Z" fill="white"/>
<path d="M0 135.73V213.73C0 223.92 5.71996 226.66 17.83 229.03L24.26 228.51L182.62 130.39C184.671 129.195 186.363 127.47 187.517 125.395C188.672 123.32 189.246 120.973 189.18 118.6L192.64 41.1401C192.36 31.1401 175.77 24.9901 167.11 30.0701L6.51996 124.34C4.53495 125.506 2.88907 127.17 1.74542 129.168C0.601777 131.166 0.000121632 133.428 0 135.73Z" fill="#8E264C"/>
<path d="M191.56 36.7101C189.478 35.1044 186.963 34.1595 184.34 33.9973C181.716 33.8351 179.103 34.4631 176.84 35.8001L16.2499 130.07C14.2637 131.235 12.6164 132.899 11.4711 134.897C10.3257 136.895 9.72205 139.157 9.7199 141.46V219.46C9.70346 221.903 10.3758 224.302 11.6599 226.38C10.0368 225.158 8.72276 223.572 7.82318 221.751C6.9236 219.929 6.46355 217.922 6.47991 215.89V137.89C6.47831 135.585 7.08025 133.32 8.22589 131.32C9.37152 129.32 11.0209 127.655 13.0099 126.49L173.59 32.2301C176.576 30.4794 180.13 29.968 183.489 30.8054C186.848 31.6428 189.745 33.7624 191.56 36.7101Z" fill="#B22F65"/>
<path d="M195.67 120.76C195.735 123.133 195.16 125.479 194.006 127.554C192.852 129.628 191.16 131.354 189.11 132.55L26.3398 227.31C24.9223 228.746 23.0937 229.706 21.1067 230.058C19.1197 230.41 17.0724 230.137 15.2478 229.275C13.4231 228.413 11.9112 227.006 10.9209 225.247C9.93066 223.489 9.51093 221.467 9.7198 219.46V141.46C9.72195 139.157 10.3256 136.894 11.471 134.897C12.6163 132.899 14.2636 131.235 16.2498 130.07L176.86 35.7996C179.123 34.4625 181.736 33.8345 184.359 33.9967C186.983 34.159 189.498 35.1039 191.58 36.7095C192.788 38.6852 193.454 40.9445 193.51 43.2595L195.67 120.76Z" fill="#B22F65"/>
<path d="M120.75 168.49L153.45 210.75C153.515 210.838 153.607 210.903 153.712 210.935C153.817 210.967 153.929 210.965 154.033 210.928C154.136 210.891 154.225 210.821 154.285 210.73C154.346 210.638 154.376 210.53 154.37 210.42L154.7 150.66C154.7 150.28 150.11 151.73 149.78 151.91L122.44 167.17C122.18 167.28 120.57 168.25 120.75 168.49Z" fill="#B22F65"/>
<path d="M47.3502 197.79C63.4713 197.79 76.5402 182.012 76.5402 162.55C76.5402 143.087 63.4713 127.31 47.3502 127.31C31.229 127.31 18.1602 143.087 18.1602 162.55C18.1602 182.012 31.229 197.79 47.3502 197.79Z" fill="white"/>
<path d="M82.8602 119.33L175.05 65.0195C175.182 64.9429 175.331 64.9009 175.483 64.8977C175.636 64.8944 175.787 64.9299 175.922 65.0009C176.057 65.0719 176.171 65.176 176.255 65.3034C176.339 65.4309 176.389 65.5775 176.4 65.7295L176.59 68.3795C176.599 68.5448 176.563 68.7095 176.486 68.8557C176.408 69.002 176.292 69.1243 176.15 69.2095L84.1502 124.43C84.0212 124.505 83.8754 124.548 83.7259 124.553C83.5763 124.558 83.4279 124.526 83.2938 124.46C83.1598 124.393 83.0445 124.295 82.9583 124.172C82.8721 124.05 82.8178 123.908 82.8002 123.76L82.3802 120.21C82.3639 120.032 82.4009 119.853 82.4864 119.697C82.5718 119.54 82.7019 119.412 82.8602 119.33Z" fill="#8E264C"/>
<path d="M82.8598 133.39L175.05 79.0703C175.182 78.9936 175.331 78.9517 175.483 78.9484C175.636 78.9452 175.786 78.9807 175.921 79.0517C176.056 79.1227 176.171 79.2268 176.255 79.3542C176.338 79.4817 176.388 79.6283 176.4 79.7803L176.59 82.4303C176.6 82.5958 176.564 82.7608 176.487 82.9073C176.409 83.0537 176.293 83.1759 176.15 83.2603L84.1498 138.48C84.0215 138.556 83.8765 138.599 83.7277 138.605C83.5789 138.61 83.4309 138.579 83.2971 138.514C83.1633 138.448 83.0479 138.351 82.9611 138.23C82.8743 138.109 82.8189 137.968 82.7998 137.82L82.3798 134.27C82.3622 134.092 82.3985 133.913 82.4841 133.756C82.5698 133.599 82.7007 133.472 82.8598 133.39Z" fill="#8E264C"/>
<path d="M82.86 147.44L175.07 93.1699C175.202 93.0932 175.351 93.0513 175.503 93.0481C175.656 93.0448 175.807 93.0803 175.942 93.1513C176.076 93.2223 176.191 93.3264 176.275 93.4538C176.358 93.5813 176.409 93.7279 176.42 93.8799L176.61 96.5399C176.618 96.705 176.581 96.8693 176.504 97.0153C176.426 97.1614 176.311 97.2839 176.17 97.3699L84.17 152.59C84.041 152.666 83.8952 152.708 83.7456 152.714C83.5961 152.719 83.4477 152.687 83.3136 152.62C83.1796 152.554 83.0643 152.455 82.9781 152.333C82.8919 152.21 82.8376 152.068 82.82 151.92L82.3999 148.37C82.3713 148.186 82.4001 147.998 82.4825 147.832C82.5648 147.665 82.6967 147.528 82.86 147.44Z" fill="#8E264C"/>
<path d="M82.8598 161.49L175.07 107.17C175.202 107.093 175.351 107.051 175.503 107.048C175.656 107.045 175.806 107.08 175.941 107.151C176.076 107.222 176.191 107.326 176.275 107.454C176.358 107.581 176.408 107.728 176.42 107.88L176.61 110.53C176.62 110.695 176.584 110.86 176.507 111.007C176.429 111.153 176.313 111.276 176.17 111.36L84.1698 166.58C84.0408 166.656 83.895 166.698 83.7455 166.704C83.5959 166.709 83.4475 166.677 83.3135 166.61C83.1794 166.544 83.0641 166.445 82.9779 166.323C82.8917 166.2 82.8374 166.058 82.8198 165.91L82.3998 162.36C82.385 162.186 82.4205 162.012 82.5021 161.857C82.5836 161.703 82.7078 161.576 82.8598 161.49Z" fill="#8E264C"/>
<path d="M49.3 173.99C58.4624 173.99 65.89 165.694 65.89 155.46C65.89 145.226 58.4624 136.93 49.3 136.93C40.1376 136.93 32.71 145.226 32.71 155.46C32.71 165.694 40.1376 173.99 49.3 173.99Z" fill="#B22F65"/>
<path d="M61.7699 159.73C63.0788 159.73 64.1399 158.476 64.1399 156.93C64.1399 155.383 63.0788 154.13 61.7699 154.13C60.461 154.13 59.3999 155.383 59.3999 156.93C59.3999 158.476 60.461 159.73 61.7699 159.73Z" fill="white"/>
<path d="M50.1498 161.61C51.4587 161.61 52.5198 160.356 52.5198 158.81C52.5198 157.263 51.4587 156.01 50.1498 156.01C48.8409 156.01 47.7798 157.263 47.7798 158.81C47.7798 160.356 48.8409 161.61 50.1498 161.61Z" fill="white"/>
<path d="M52.4702 167.32C52.4702 167.32 58.7102 172.06 61.9402 165.6L52.4702 167.32Z" fill="white"/>
<path d="M39.8598 173.49C39.8598 173.49 32.5598 186.63 32.0698 189.07C32.0698 189.07 45.1698 202.12 62.4498 190.44L58.1098 173.98C58.1098 173.98 48.6498 181.04 39.8598 173.49Z" fill="#B22F65"/>
<path d="M157.18 107.84V185.84C157.18 196.03 172.1 203.41 181.18 200.49L339.81 102.49C341.862 101.295 343.553 99.5694 344.708 97.4949C345.862 95.4203 346.436 93.0732 346.37 90.7L348.21 7.83998C339.45 1.66998 332.96 -2.91002 324.29 2.16998L163.71 96.44C161.723 97.6062 160.074 99.2717 158.929 101.271C157.783 103.271 157.181 105.535 157.18 107.84Z" fill="#663167"/>
<path d="M163.67 110.01V188.01C163.669 190.334 164.281 192.617 165.444 194.629C166.607 196.641 168.28 198.31 170.295 199.468C172.309 200.626 174.594 201.233 176.917 201.226C179.241 201.22 181.522 200.6 183.53 199.43L346.3 104.67C348.351 103.473 350.043 101.746 351.197 99.6695C352.351 97.5933 352.925 95.245 352.86 92.8705L350.68 15.3705C350.613 13.0766 349.949 10.8398 348.754 8.88042C347.559 6.92107 345.875 5.30677 343.866 4.19656C341.858 3.08634 339.595 2.51852 337.3 2.54902C335.005 2.57952 332.758 3.20729 330.78 4.37049L170.19 98.6305C168.206 99.7955 166.561 101.458 165.418 103.454C164.274 105.45 163.672 107.71 163.67 110.01Z" fill="#884189"/>
<path d="M210.99 182.03L214.72 215.53C214.732 215.758 214.823 215.975 214.975 216.145C215.128 216.315 215.335 216.427 215.56 216.463C215.786 216.5 216.017 216.457 216.215 216.344C216.414 216.231 216.567 216.053 216.65 215.84L238.19 168.26C238.285 168.066 238.315 167.847 238.276 167.635C238.236 167.423 238.129 167.229 237.971 167.083C237.812 166.937 237.61 166.846 237.396 166.824C237.181 166.801 236.965 166.849 236.78 166.96L211.5 181.03C211.325 181.126 211.183 181.273 211.092 181.451C211.001 181.63 210.965 181.831 210.99 182.03Z" fill="#884189"/>
<path d="M204.54 169.9C220.661 169.9 233.73 154.122 233.73 134.66C233.73 115.197 220.661 99.4199 204.54 99.4199C188.419 99.4199 175.35 115.197 175.35 134.66C175.35 154.122 188.419 169.9 204.54 169.9Z" fill="white"/>
<path d="M240.54 91.4196L334.49 36.0596L334.81 40.7096L241.19 96.9296L240.54 91.4196Z" fill="#663167"/>
<path d="M240.54 105.47L334.49 50.1201L334.81 54.7701L241.19 110.98L240.54 105.47Z" fill="#663167"/>
<path d="M240.54 119.52L334.49 64.1699L334.81 68.8199L241.19 125.04L240.54 119.52Z" fill="#663167"/>
<path d="M240.54 133.58L334.49 78.2305L334.81 82.8805L241.19 139.09L240.54 133.58Z" fill="#663167"/>
<path d="M214.81 216.06L210.49 212.39L207.35 184.93L211.24 182.98L214.81 216.06Z" fill="#663167"/>
<path d="M204.24 145.48C213.402 145.48 220.83 137.184 220.83 126.95C220.83 116.716 213.402 108.42 204.24 108.42C195.078 108.42 187.65 116.716 187.65 126.95C187.65 137.184 195.078 145.48 204.24 145.48Z" fill="#884189"/>
<path d="M194.8 134.68C196.109 134.68 197.17 133.426 197.17 131.88C197.17 130.334 196.109 129.08 194.8 129.08C193.491 129.08 192.43 130.334 192.43 131.88C192.43 133.426 193.491 134.68 194.8 134.68Z" fill="white"/>
<path d="M206.59 135.62C207.899 135.62 208.96 134.366 208.96 132.82C208.96 131.273 207.899 130.02 206.59 130.02C205.281 130.02 204.22 131.273 204.22 132.82C204.22 134.366 205.281 135.62 206.59 135.62Z" fill="white"/>
<path d="M206.2 140.69C206.2 140.69 200.75 146.32 196.57 140.43L206.2 140.69Z" fill="white"/>
<path d="M213.64 144.99C213.64 144.99 220.94 158.13 221.43 160.56C221.43 160.56 208.29 175.16 191.01 163.48L195.39 145.48C195.39 145.48 204.86 152.53 213.64 144.99Z" fill="#884189"/>
<path d="M153.45 210.75L144 206.77L117.51 173.25L122.92 171.09L153.45 210.75Z" fill="#8E264C"/>
</g>
<defs>
<clipPath id="clip0">
<rect width="352.87" height="229.13" fill="white"/>
</clipPath>
</defs>
</svg>
