<svg width="117" height="114" viewBox="0 0 117 114" fill="none" xmlns="http://www.w3.org/2000/svg">
<path d="M101.17 81.985L98.7128 87.0464L60.4089 110L2 74.7545V69.877L60.4089 105.119L101.17 81.985Z" fill="#221022"/>
<path d="M101.17 81.9843L60.4089 105.118L2 69.8762L42.3952 48.1846L101.17 81.9843Z" fill="#663167"/>
<path d="M38.0273 50.7136L54.1349 2.54883L112.817 37.2513L96.8023 84.5133L38.0273 50.7136Z" fill="#663167"/>
<path d="M41.4863 50.0368L55.7635 7.33887L107.781 38.1001L93.5877 79.9955L41.4863 50.0368Z" fill="#221022"/>
<path d="M54.1353 2.54856L58.2295 0.834961L117 34.9941L101.17 81.9844L95.9821 85.42L112.818 37.2511L54.1353 2.54856Z" fill="#221022"/>
<path opacity="0.3" d="M43.7628 42.6308L85.2478 24.8721L95.7547 31.1079L46.9018 53.0671L41.4863 50.0369L43.7628 42.6308Z" fill="white"/>
<path opacity="0.3" d="M49.6284 54.8301L97.2568 31.918L101.898 34.6305L53.3818 56.9992L49.6284 54.8301Z" fill="white"/>
<path d="M21.4697 63.0059L21.5623 61.7437L40.2114 52.0723L94.3451 82.077L94.3914 83.1595L73.2387 95.0878L21.4697 63.0059Z" fill="#221022"/>
<path d="M24.1123 80.7181L35.1621 74.7539L52.633 84.9227L42.4879 91.9233L24.1123 80.7181Z" fill="#221022"/>
<path d="M2 69.8769L60.4089 105.119L61.1368 104.575L4.73088 69.8769L39.3277 51.4411L49.6747 20.7133L48.2188 19.8105L38.0316 50.4924L2 69.8769Z" fill="#A670A7"/>
<path d="M40.2111 52.0723L41.2126 52.7953L23.6533 61.8314L74.0589 92.7389L73.15 93.1903L21.562 61.7437L40.2111 52.0723Z" fill="#442044"/>
<path d="M0 77L3 75.5L60.5 110L96.5 88.5L99.5 90.5L61.5 113.5L0 77Z" fill="#F277A5"/>
</svg>
