<svg width="117" height="124" viewBox="0 0 117 124" fill="none" xmlns="http://www.w3.org/2000/svg">
<path d="M101.17 92.15L98.7128 97.2114L60.4089 120.165L2 84.9195V80.042L60.4089 115.284L101.17 92.15Z" fill="#221022"/>
<path d="M101.17 92.1493L60.4089 115.283L2 80.0413L42.3952 58.3496L101.17 92.1493Z" fill="#663167"/>
<path d="M38.0273 60.8786L54.1349 12.7139L112.817 47.4164L96.8023 94.6783L38.0273 60.8786Z" fill="#663167"/>
<path d="M41.4863 60.2018L55.7635 17.5039L107.781 48.2651L93.5877 90.1606L41.4863 60.2018Z" fill="#221022"/>
<path d="M54.1353 12.7136L58.2295 11L117 45.1592L101.17 92.1494L95.9821 95.585L112.818 47.4161L54.1353 12.7136Z" fill="#221022"/>
<path opacity="0.3" d="M43.7628 52.7959L85.2478 35.0371L95.7547 41.2729L46.9018 63.2321L41.4863 60.2019L43.7628 52.7959Z" fill="white"/>
<path opacity="0.3" d="M49.6284 64.9951L97.2568 42.083L101.898 44.7955L53.3818 67.1643L49.6284 64.9951Z" fill="white"/>
<path d="M21.4697 73.1709L21.5623 71.9087L40.2114 62.2373L94.3451 92.242L94.3914 93.3245L73.2387 105.253L21.4697 73.1709Z" fill="#221022"/>
<path d="M24.1123 90.8831L35.1621 84.9189L52.633 95.0877L42.4879 102.088L24.1123 90.8831Z" fill="#221022"/>
<path d="M2 80.042L60.4089 115.284L61.1368 114.74L4.73088 80.042L39.3277 61.6061L49.6747 30.8784L48.2188 29.9756L38.0316 60.6574L2 80.042Z" fill="#A670A7"/>
<path d="M40.2111 62.2373L41.2126 62.9604L23.6533 71.9965L74.0589 102.904L73.15 103.355L21.562 71.9087L40.2111 62.2373Z" fill="#442044"/>
<path d="M0 87.165L3 85.665L60.5 120.165L96.5 98.665L99.5 100.665L61.5 123.665L0 87.165Z" fill="#F277A5"/>
<path d="M73.9999 26.6334C73.9999 40.8149 64.0779 52.4186 51.5826 53.2195C51.1229 53.2532 50.6563 53.2667 50.2102 53.2667C48.0086 53.2669 45.8206 52.9285 43.7258 52.2638C33.7214 49.1071 26.3999 38.8024 26.3999 26.6334C26.3999 13.3604 35.0801 2.35577 46.4431 0.336567C47.6858 0.112044 48.9467 -0.00060239 50.2102 3.29817e-05C50.9875 -0.00135949 51.7642 0.0413411 52.5364 0.127918C64.5719 1.43367 73.9999 12.8018 73.9999 26.6334Z" fill="#11A896"/>
<path d="M70.6 26.1885C70.6 41.1407 59.7919 53.2666 46.459 53.2666C45.6712 53.268 44.884 53.2246 44.1013 53.1366C40.9372 52.7849 37.8894 51.7573 35.171 50.1256C28.529 45.3013 24.1333 36.9116 24.1333 27.3724C24.1333 12.954 34.1834 1.15652 46.8554 0.342188C48.115 0.113915 49.3931 -0.00061245 50.6738 3.35325e-05C51.4616 -0.00138219 52.2488 0.0420315 53.0315 0.130054C55.3734 0.877757 57.5765 1.99398 59.5554 3.43528C66.2252 8.25965 70.6 16.6493 70.6 26.1885Z" fill="#17C3B2"/>
<path d="M33.6441 9.06641L27.5332 33.5813L58.8403 44.1997L66.0665 19.6781L33.6441 9.06641Z" fill="white"/>
<path d="M53.6 1.03271C52.82 0.944735 52.0355 0.901345 51.2504 0.90276C49.9741 0.902115 48.7005 1.01658 47.4453 1.24472C34.8172 2.05859 24.802 13.8494 24.802 28.2596C24.802 37.7935 29.1824 46.1784 35.8014 51C28.1774 46.4588 23 37.4447 23 27.0628C23 12.1191 33.7706 0 47.0502 0C49.2748 0.00416674 51.4849 0.352629 53.6 1.03271Z" fill="#8BE1D8"/>
<path d="M43.9609 27.1997L33.2002 9.43989L33.8868 9.06641L44.3076 26.2725L65.7814 18.455L66.0669 19.1569L43.9609 27.1997Z" fill="#17C3B2"/>
</svg>
