<svg width="109" height="184" viewBox="0 0 109 184" fill="none" xmlns="http://www.w3.org/2000/svg">
<g clip-path="url(#clip0)">
<path fill-rule="evenodd" clip-rule="evenodd" d="M29.1116 151.47C29.1116 151.47 27.9685 164.214 27.7412 167.628L33.2227 168.082C33.2227 168.082 34.1318 156.018 34.8136 152.83L29.1116 151.47Z" fill="#FBC9A6"/>
<path fill-rule="evenodd" clip-rule="evenodd" d="M34.2923 175.984C34.2254 176.618 34.1118 177.078 33.9514 177.145C31.2374 178.372 22.0593 179.712 18.209 178.872C17.4536 178.712 15.8761 178.005 15.5819 177.278C15.4654 176.887 15.4425 176.473 15.5151 176.071C15.836 176.778 17.4336 177.485 18.189 177.645C22.1329 178.485 31.3711 177.191 34.2923 175.984Z" fill="#EAE4F4"/>
<path fill-rule="evenodd" clip-rule="evenodd" d="M33.6505 163.073L33.2627 167.968L32.0795 170.976L30.4351 169.495L27.7612 167.061L28.1757 162.573C29.8602 163.46 32.0996 163.327 33.6505 163.073Z" fill="#EFE3FF"/>
<path fill-rule="evenodd" clip-rule="evenodd" d="M33.871 160.305L33.7373 162.106C31.8943 162.465 29.9858 162.268 28.2559 161.539L28.4163 159.945C28.4163 159.945 31.8255 161.479 33.871 160.305Z" fill="#EFE3FF"/>
<path fill-rule="evenodd" clip-rule="evenodd" d="M33.7241 162.073L33.6506 163.073C32.1265 163.326 29.8403 163.46 28.1558 162.573L28.2427 161.506C29.9726 162.235 31.8812 162.432 33.7241 162.073Z" fill="#E03D9A"/>
<path fill-rule="evenodd" clip-rule="evenodd" d="M35.0678 168.902C35.0384 168.955 34.9999 169.002 34.9541 169.042C34.8115 169.173 34.6596 169.293 34.4995 169.402C34.4995 169.789 34.5464 173.93 34.2923 176.004C31.3711 177.212 22.1329 178.512 18.209 177.665C17.4336 177.505 15.836 176.805 15.5352 176.098C15.7535 174.674 16.3698 173.34 17.3133 172.25C18.7037 170.996 24.252 170.516 25.3349 170.429C25.5319 170.006 25.6691 169.557 25.7426 169.096V168.642C25.7426 167.975 25.6089 167.048 25.9031 166.641C25.9263 166.591 25.9666 166.551 26.0167 166.528C27.2267 165.568 31.1973 165.861 32.0864 167.075C32.5677 167.742 31.9928 170.409 31.9928 170.409V170.549V170.436C32.4828 169.703 32.9035 168.926 33.2495 168.115C33.4099 167.615 34.7803 167.768 35.1413 168.115C35.1413 168.115 35.1413 168.162 35.1881 168.162C35.2162 168.415 35.1746 168.671 35.0678 168.902Z" fill="#E03D9A"/>
<path d="M28.9311 172.156C28.8585 172.158 28.7873 172.136 28.7282 172.094C28.6691 172.052 28.6253 171.992 28.6036 171.922C28.2961 170.995 25.9698 170.542 24.5928 170.475C24.5023 170.468 24.418 170.427 24.357 170.36C24.2961 170.293 24.2633 170.206 24.2652 170.115C24.2704 170.024 24.3111 169.939 24.3786 169.878C24.4462 169.817 24.5351 169.785 24.6262 169.788C25.0407 169.788 28.7105 170.035 29.2653 171.709C29.28 171.751 29.2862 171.796 29.2834 171.841C29.2806 171.886 29.2688 171.93 29.2489 171.97C29.229 172.01 29.2014 172.046 29.1675 172.076C29.1336 172.106 29.0942 172.128 29.0515 172.142L28.9311 172.156Z" fill="white"/>
<path d="M25.5955 172.656C25.524 172.656 25.4543 172.634 25.3966 172.592C25.3388 172.55 25.2961 172.491 25.2746 172.423C24.9605 171.496 22.6409 171.042 21.2638 170.975C21.192 170.951 21.13 170.905 21.0873 170.842C21.0446 170.78 21.0235 170.705 21.0273 170.629C21.0311 170.554 21.0595 170.482 21.1082 170.424C21.157 170.366 21.2233 170.325 21.2972 170.309C21.7184 170.309 25.3816 170.555 25.9431 172.229C25.971 172.315 25.9642 172.408 25.9243 172.489C25.8843 172.57 25.8143 172.632 25.7292 172.663C25.6846 172.669 25.6391 172.667 25.5955 172.656Z" fill="white"/>
<path fill-rule="evenodd" clip-rule="evenodd" d="M45.0812 120.959C43.1894 121.846 39.9741 140.212 37.6679 155.284C31.7119 157.058 27.7412 155.144 25.689 153.623C27.0259 133.43 30.7091 110.489 30.7091 110.489L45.0812 120.959Z" fill="url(#paint0_linear)"/>
<path d="M36.1975 153.07H35.9702C35.9702 152.724 35.9902 152.344 36.0304 151.93H36.2576C36.2309 152.344 36.2108 152.724 36.1975 153.07ZM36.3512 150.796H36.1239C36.1574 150.43 36.1975 150.049 36.2376 149.663H36.4649C36.4248 150.056 36.3846 150.436 36.3512 150.796ZM36.5985 148.529H36.3713C36.4181 148.162 36.4648 147.782 36.5183 147.402H36.7457C36.6922 147.789 36.6453 148.162 36.5985 148.529ZM36.8994 146.275H36.6721C36.7255 145.901 36.779 145.528 36.8392 145.148H37.0598L36.8994 146.275ZM37.2336 144.021L37.0063 143.987L37.1868 142.86L37.4074 142.894C37.3473 143.274 37.2871 143.634 37.2136 144.021H37.2336ZM37.5945 141.767L37.3673 141.733C37.4274 141.36 37.4943 140.98 37.5545 140.606L37.7817 140.646C37.7149 141.02 37.6547 141.393 37.5945 141.767ZM37.9756 139.519L37.7484 139.479C37.8152 139.106 37.882 138.732 37.9422 138.359L38.1695 138.399C38.1026 138.772 38.0358 139.146 37.9756 139.519ZM38.37 137.279L38.1427 137.239C38.2096 136.858 38.2831 136.485 38.3499 136.112L38.5706 136.152L38.37 137.279ZM38.7777 135.031L38.5505 134.964L38.7577 133.844L38.985 133.884L38.7777 135.031ZM39.1989 132.79L38.9783 132.75L39.2189 131.63L39.4395 131.67L39.1989 132.79ZM39.6334 130.556L39.4061 130.51L39.6267 129.389L39.854 129.436L39.6334 130.556ZM40.0746 128.316L39.8874 128.296L40.108 127.175L40.3353 127.222L40.0746 128.316ZM40.5291 126.082L40.3019 126.035L40.5358 124.915L40.7564 124.961L40.5291 126.082ZM40.9904 123.841L40.7631 123.794L41.0038 122.674L41.2243 122.721C41.2243 122.721 41.1375 123.121 40.9904 123.841Z" fill="#DAEDEB"/>
<path fill-rule="evenodd" clip-rule="evenodd" d="M30.228 108.422C41.7056 124.881 67.5819 110.903 67.5819 110.903L65.8238 107.568L53.6176 103.814L38.9114 103.587L32.7748 106.314L30.228 108.422Z" fill="#E03D9A"/>
<path fill-rule="evenodd" clip-rule="evenodd" d="M57.02 156.197C57.02 156.197 57.6885 168.968 57.996 172.383L63.4774 172.042C63.4774 172.042 62.6284 159.979 62.8557 156.704L57.02 156.197Z" fill="#FBC9A6"/>
<path fill-rule="evenodd" clip-rule="evenodd" d="M64.9548 180.032C64.9147 180.699 64.8412 181.126 64.6874 181.219C62.0136 182.606 52.9759 184.494 49.0788 183.887C48.3234 183.773 46.679 183.16 46.3648 182.453C46.2187 182.068 46.1638 181.655 46.2044 181.246C46.5453 181.913 48.2098 182.52 48.9852 182.66C52.9559 183.267 62.1072 181.419 64.9548 180.032Z" fill="#EAE4F4"/>
<path fill-rule="evenodd" clip-rule="evenodd" d="M63.1768 167.034L63.4977 171.956L62.7423 175.117L60.8974 173.89L57.8826 171.889L57.6553 167.381C59.4601 167.968 61.6928 167.514 63.1768 167.034Z" fill="#EFE3FF"/>
<path fill-rule="evenodd" clip-rule="evenodd" d="M62.9962 164.233L63.1098 166.034C61.3382 166.647 59.4247 166.726 57.6084 166.261L57.5215 164.667C57.5215 164.667 61.1445 165.741 62.9962 164.233Z" fill="#EFE3FF"/>
<path fill-rule="evenodd" clip-rule="evenodd" d="M63.1099 166.034L63.1767 167.035C61.6927 167.495 59.46 167.968 57.6552 167.335L57.6084 166.241C59.419 166.745 61.3424 166.673 63.1099 166.034Z" fill="#E03D9A"/>
<path fill-rule="evenodd" clip-rule="evenodd" d="M65.2889 172.91C65.2676 172.966 65.2275 173.013 65.1753 173.043C65.0429 173.185 64.8975 173.315 64.7408 173.43C64.7408 173.816 65.0617 177.938 64.948 180.032C62.0937 181.399 52.9156 183.266 48.9784 182.653C48.2029 182.539 46.5586 181.926 46.1909 181.239C46.3142 179.805 46.853 178.438 47.7417 177.304C49.0787 175.971 54.5668 175.164 55.6163 175.004C55.7858 174.575 55.9003 174.127 55.9572 173.67C55.9572 173.55 55.9572 173.396 55.9572 173.21C55.8903 172.543 55.7299 171.616 55.9572 171.209C55.985 171.169 56.0164 171.131 56.0508 171.096C57.1939 170.075 61.1846 170.095 62.1405 171.282C62.6686 171.949 62.2541 174.617 62.2541 174.617V174.757V174.643C62.7047 173.883 63.0808 173.082 63.3771 172.249C63.4908 171.749 64.8812 171.823 65.2422 172.163C65.2422 172.163 65.2889 172.163 65.2889 172.209C65.3753 172.435 65.3753 172.684 65.2889 172.91Z" fill="#E03D9A"/>
<path d="M59.3465 176.531C59.2771 176.53 59.2095 176.509 59.1523 176.47C59.0951 176.43 59.051 176.375 59.0257 176.311C58.6714 175.41 56.3117 175.13 54.9213 175.117C54.8718 175.127 54.8207 175.126 54.7718 175.114C54.7228 175.101 54.6772 175.079 54.6381 175.047C54.5991 175.015 54.5676 174.975 54.546 174.929C54.5244 174.884 54.5132 174.834 54.5132 174.783C54.5132 174.733 54.5244 174.683 54.546 174.638C54.5676 174.592 54.5991 174.552 54.6381 174.52C54.6772 174.488 54.7228 174.466 54.7718 174.453C54.8207 174.441 54.8718 174.44 54.9213 174.45C55.3424 174.45 59.0323 174.45 59.6741 176.077C59.6901 176.119 59.6977 176.164 59.6963 176.209C59.6948 176.254 59.6845 176.298 59.6658 176.339C59.6472 176.38 59.6206 176.417 59.5876 176.447C59.5546 176.478 59.5158 176.502 59.4736 176.517C59.433 176.532 59.3893 176.537 59.3465 176.531Z" fill="white"/>
<path d="M56.0372 177.231C55.9684 177.232 55.9009 177.212 55.8436 177.174C55.7863 177.136 55.742 177.082 55.7164 177.018C55.3621 176.118 53.0425 175.831 51.612 175.824C51.5394 175.803 51.4754 175.76 51.43 175.7C51.3845 175.639 51.3599 175.566 51.3599 175.491C51.3599 175.415 51.3845 175.342 51.43 175.282C51.4754 175.222 51.5394 175.178 51.612 175.157C52.0331 175.157 55.7231 175.157 56.3648 176.791C56.3808 176.833 56.3883 176.878 56.3869 176.923C56.3855 176.968 56.3752 177.012 56.3565 177.053C56.3379 177.094 56.3113 177.131 56.2783 177.161C56.2453 177.192 56.2065 177.216 56.1642 177.231H56.0372Z" fill="white"/>
<path fill-rule="evenodd" clip-rule="evenodd" d="M31.1972 106.621C31.1972 106.621 26.9524 122.099 44.6333 121.646C44.6333 121.646 66.559 124.38 66.3117 107.535L31.1972 106.621Z" fill="#B3CECC"/>
<path fill-rule="evenodd" clip-rule="evenodd" d="M30.7095 110.496C30.7095 110.496 36.9128 120.053 59.527 111.29C59.527 111.29 63.8654 110.196 66.2117 110.623L60.1955 105.701L49.5 104.428L39.3527 105.228L33.4435 106.708L31.1841 108.389L30.7095 110.496Z" fill="#A5BFBD"/>
<path fill-rule="evenodd" clip-rule="evenodd" d="M66.3251 157.292C63.5663 158.283 60.6136 158.619 57.7019 158.272C56.4366 158.082 55.2291 157.615 54.1657 156.905C52.6616 142.02 48.965 121.713 47.1602 120.76L63.591 112.224C63.5643 112.177 66.1246 137.032 66.3251 157.292Z" fill="#B3CECC"/>
<path fill-rule="evenodd" clip-rule="evenodd" d="M40.9303 66.675C47.5748 71.93 85.5169 70.5696 88.8258 59.3392C94.1735 41.0599 88.0504 21.9204 79.9285 6.12187C76.2988 -0.960436 39.8206 2.91416 39.8206 2.91416C30.8498 19.3662 23.617 35.3247 44.6068 40.1996L40.9303 66.675Z" fill="#3D1B1B"/>
<path fill-rule="evenodd" clip-rule="evenodd" d="M59.3195 75.6109C65.9641 80.8659 85.5168 70.5826 88.7989 59.3789C94.1868 41.0996 88.0235 21.9601 79.9016 6.16158C76.2718 -0.920729 49.8207 0.626441 49.7605 0.626441C40.7964 17.0851 37.6679 36.4381 58.6578 41.3064L59.3262 75.6109H59.3195Z" fill="#3D1B1B"/>
<path fill-rule="evenodd" clip-rule="evenodd" d="M73.4242 48.9355C73.4242 48.9355 78.5112 52.6634 79.3535 55.4643C79.3535 55.4643 80.8375 61.3129 79.2398 62.8001L73.2236 59.0655L71.8867 53.557L73.4242 48.9355Z" fill="#E03D9A"/>
<path fill-rule="evenodd" clip-rule="evenodd" d="M75.5235 73.5503C75.8443 73.3635 76.1919 73.1835 76.5061 72.9767C82.8899 64.3072 82.6626 57.1382 79.6278 50.5094C77.3951 45.6879 73.6517 41.173 69.8883 36.6249C61.2784 26.2615 52.4747 15.7314 61.9469 0.919922C61.6728 0.919922 61.3988 0.919927 61.1247 0.966609C49.0923 16.6984 57.2209 28.2355 65.3227 39.6859C68.1703 43.7406 71.0246 47.7885 72.9632 51.9766C75.978 58.512 76.7735 65.481 71.8937 73.5836C71.8001 74.0571 71.6865 74.4906 71.5728 74.9174C77.3484 66.1545 76.593 58.6654 73.351 51.6298C71.3924 47.3951 68.538 43.3471 65.6636 39.2724C57.9495 28.3422 50.2154 17.372 60.3159 2.8072C52.7422 16.9185 61.2049 27.0951 69.554 37.1117C73.3175 41.6132 77.0409 46.1013 79.2535 50.9029C82.3351 57.525 82.4487 64.7674 75.5568 73.577L75.5235 73.5503ZM80.2027 70.4759C80.9781 69.8915 81.7233 69.2683 82.4354 68.6087C83.1038 67.7884 83.7188 66.9948 84.267 66.2212C85.7451 63.6296 87.0189 60.9272 88.0772 58.1386C88.8629 54.6799 88.4432 51.0573 86.8874 47.8686C84.5143 42.7269 79.7949 38.1987 75.002 33.6239C65.5299 24.541 55.8772 15.2779 64.3667 0.946593H63.8654C55.3558 15.5847 65.1221 24.9544 74.6812 34.1107C79.4474 38.6856 84.1466 43.1937 86.4795 48.2687C89.3072 54.4174 88.6254 61.4463 80.2027 70.5093V70.4759Z" fill="#301919"/>
<path fill-rule="evenodd" clip-rule="evenodd" d="M76.3656 60.9401L72.2812 50.9368L96.6067 29.9033C95.2698 28.1294 95.9383 25.4885 96.6067 23.808C97.2017 22.3742 97.7231 21.4605 98.2311 23.6679C98.572 25.1284 98.2712 26.6022 98.4584 26.8089C98.8461 27.1957 100.644 24.0547 104.755 21.3271C104.802 21.3271 107.991 21.3938 103.706 24.7616C99.0266 28.4295 108.973 21.1404 108.499 25.1951C108.499 25.1951 104 27.7893 103.519 28.016C106.861 27.7692 109.274 25.9687 108.953 28.5828C108.886 29.1297 103.091 30.2901 104.942 30.6569C105.303 30.7235 106.42 30.4034 107.429 30.4501C107.656 30.4501 109.822 31.2037 106.353 32.3841C104.983 32.8442 99.7352 34.0913 99.5547 34.278C95.0158 39.9866 91.2724 47.0889 86.7068 52.1905C84.4273 54.738 80.597 57.4056 77.8362 59.813L76.3656 60.9401Z" fill="#FBC9A6"/>
<path fill-rule="evenodd" clip-rule="evenodd" d="M26.9926 56.3856L30.7094 52.5176L32.1933 47.2359L12.0926 24.4285C13.6434 22.8346 13.3226 20.1471 12.8413 18.3732C12.4335 16.8727 12.0257 15.8924 11.2503 18.0331C10.7222 19.4402 10.8358 20.9473 10.6286 21.1007C10.2008 21.4475 8.80368 18.1198 5.08701 14.8654C5.04022 14.8187 1.87172 14.5252 5.70203 18.3932C9.8532 22.6079 0.909166 14.1385 0.889112 18.2331C0.889112 18.2331 5.02022 21.3741 5.47478 21.6742C2.21266 21.0074 0.020054 18.92 0 21.5609C0 22.1077 5.60849 23.9683 3.74347 24.1284C3.37582 24.1284 2.29956 23.7016 1.29687 23.6082C1.06959 23.6082 -1.1631 24.0617 2.11907 25.6555C3.456 26.3224 8.46279 28.183 8.62322 28.3631C12.4134 34.6051 15.2143 42.1142 19.1182 47.7027C21.1236 50.5036 24.5461 53.6447 26.9926 56.3722V56.3856Z" fill="#FBC9A6"/>
<path fill-rule="evenodd" clip-rule="evenodd" d="M56.2646 54.4507L46.4983 55.3843L32.3535 45.9346C30.4134 47.1594 28.6406 48.6299 27.0793 50.3093C24.479 53.337 24.0044 58.572 24.0044 58.572L37.1197 67.675C33.9044 80.5392 30.3882 97.0179 29.82 107.968C42.9821 121.626 56.8595 106.034 67.4212 110.722C65.6431 94.5838 66.4185 79.879 65.6164 68.3352L79.4937 62.5333C79.4937 62.5333 75.5899 58.8921 74.4468 56.0645C73.3037 53.237 73.4709 48.9155 73.4709 48.9155L56.2646 54.4507Z" fill="#F25AB8"/>
<path fill-rule="evenodd" clip-rule="evenodd" d="M36.2979 70.8831C35.6294 73.6374 34.9609 76.505 34.2925 79.4193C37.9372 78.9022 41.614 78.6437 45.2954 78.6457C52.3114 78.5866 59.2966 79.578 66.0178 81.5866C65.9777 78.599 65.931 75.7314 65.8173 73.0038C60.0853 70.6881 53.9528 69.5189 47.7688 69.5627C43.9041 69.5632 40.0525 70.0108 36.2912 70.8965L36.2979 70.8831Z" fill="#E03D9A"/>
<path fill-rule="evenodd" clip-rule="evenodd" d="M56.2645 54.4506L46.4782 55.4043L44.1987 53.8838L46.6854 62.5533L58.9384 55.2442L58.9116 53.6104L56.2645 54.4506Z" fill="#BC0F6A"/>
<path fill-rule="evenodd" clip-rule="evenodd" d="M48.738 46.2684L54.6005 46.8152C54.3933 53.2773 56.0377 53.5308 56.3586 54.8178L47.6685 59.7328L46.1377 55.2046C48.3035 54.4977 50.4025 53.2707 48.7648 46.2617L48.738 46.2684Z" fill="#FBC9A6"/>
<path fill-rule="evenodd" clip-rule="evenodd" d="M57.2675 41.8871L48.8448 4.875C48.5507 5.26179 44.0786 4.9617 41.1307 6.28213C34.5864 9.22308 35.0611 18.6662 28.6973 25.9752C21.4444 34.3313 32.4139 52.9507 49.052 51.8103C50.1483 51.7436 58.591 49.9897 58.6578 50.0097C58.5175 50.0097 57.3811 41.9071 57.2675 41.8871Z" fill="#FBC9A6"/>
<path fill-rule="evenodd" clip-rule="evenodd" d="M41.044 28.0029L40.9771 28.5898C40.7966 30.5904 40.5694 33.0779 38.7445 33.3047L38.3969 33.3513C37.0599 33.5114 35.3888 33.6914 35.0545 35.6254C34.9847 36.018 35.0582 36.4226 35.2617 36.7658C35.6615 37.3291 36.2165 37.7646 36.8594 38.0195C37.373 38.2414 37.9084 38.409 38.457 38.5197C38.5991 38.5596 38.7494 38.5596 38.8915 38.5197L38.6576 38.1062C38.6576 38.1062 38.6575 38.0595 38.5439 38.0395C38.0275 37.9433 37.5232 37.7912 37.0399 37.5861C36.5022 37.3732 36.0379 37.0095 35.7029 36.5391C35.559 36.2913 35.5114 35.9993 35.5693 35.7188C35.8634 34.1249 37.3005 33.9649 38.5372 33.8248L38.8781 33.7848C41.0908 33.5114 41.3381 30.7972 41.552 28.6365L41.5988 28.0429L41.1175 28.0029H41.044Z" fill="#E79F79"/>
<path fill-rule="evenodd" clip-rule="evenodd" d="M53.8449 33.3039L54.6471 32.0768L49.7406 27.542L49.2593 29.7094L53.8449 33.3039Z" fill="#3D1B1B"/>
<path fill-rule="evenodd" clip-rule="evenodd" d="M37.8085 23.7009L38.2898 21.9203L33.1961 20.8066L32.561 22.4672L37.8085 23.7009Z" fill="#3D1B1B"/>
<path fill-rule="evenodd" clip-rule="evenodd" d="M46.933 36.5116C46.5011 36.3455 46.1515 36.0173 45.9591 35.5973C45.7667 35.1772 45.7467 34.6988 45.9035 34.2642C46.0119 33.8097 46.2944 33.4156 46.6905 33.1663C47.0865 32.917 47.5647 32.8324 48.0226 32.9305C48.4608 33.0912 48.8173 33.4187 49.014 33.8412C49.2107 34.2637 49.2316 34.7468 49.072 35.1845C49.0235 35.4143 48.9288 35.6318 48.7938 35.8241C48.6587 36.0163 48.4861 36.1794 48.2863 36.3033C48.0865 36.4273 47.8636 36.5097 47.631 36.5455C47.3984 36.5813 47.161 36.5698 46.933 36.5116Z" fill="#3D1B1B"/>
<path fill-rule="evenodd" clip-rule="evenodd" d="M33.9244 30.2967C33.4981 30.1165 33.1536 29.7856 32.9568 29.3675C32.7601 28.9494 32.7251 28.4735 32.8585 28.0312C32.9919 27.5889 33.2844 27.2113 33.6797 26.971C34.0751 26.7306 34.5455 26.6444 35.0007 26.7289C35.427 26.909 35.7716 27.24 35.9683 27.6581C36.1651 28.0762 36.2001 28.5521 36.0667 28.9944C35.9333 29.4367 35.6408 29.8142 35.2454 30.0546C34.8501 30.2949 34.3796 30.3812 33.9244 30.2967Z" fill="#3D1B1B"/>
<path fill-rule="evenodd" clip-rule="evenodd" d="M57.8421 0.500197C55.6696 0.753613 49.854 5.76191 44.6066 6.35544C36.5248 7.2624 35.9165 10.6302 33.3763 16.3587C32.8549 10.5501 33.7907 2.49418 40.4553 0.740276C46.4782 -0.793558 57.8421 0.500197 57.8421 0.500197Z" fill="#3D1B1B"/>
<path fill-rule="evenodd" clip-rule="evenodd" d="M59.8947 50.6967C57.0403 50.2632 55.1485 47.1422 55.6498 43.7278C56.1512 40.3133 58.8919 37.8992 61.7395 38.3127C64.5872 38.7262 66.4857 41.8605 65.9844 45.2749C65.483 48.6894 62.7423 51.1302 59.8947 50.6967Z" fill="#FBC9A6"/>
<path fill-rule="evenodd" clip-rule="evenodd" d="M49.2458 51.7898C51.0498 51.8393 52.8467 51.545 54.5401 50.9229C52.9194 52.3137 51.1212 53.4842 49.1924 54.404C49.296 53.5365 49.3139 52.6608 49.2458 51.7898Z" fill="#E79F79"/>
<path fill-rule="evenodd" clip-rule="evenodd" d="M37.0798 67.7024L36.418 67.2222L38.9916 58.5527L37.0798 67.7024Z" fill="#E03D9A"/>
<path fill-rule="evenodd" clip-rule="evenodd" d="M37.0332 42.8675L46.6792 40.54C47.4346 49.5363 38.7177 49.5096 37.0332 42.8675Z" fill="#5D262C"/>
<path fill-rule="evenodd" clip-rule="evenodd" d="M45.6563 45.755C45.3431 46.2173 44.9409 46.6128 44.473 46.9185C44.0052 47.2243 43.4811 47.4341 42.9312 47.5359C42.3813 47.6377 41.8165 47.6293 41.2699 47.5114C40.7232 47.3934 40.2056 47.1681 39.7471 46.8487C40.054 46.3792 40.4534 45.9767 40.9209 45.6656C41.3884 45.3546 41.9144 45.1415 42.4669 45.0392C43.0194 44.9369 43.5869 44.9477 44.1352 45.0707C44.6834 45.1938 45.2009 45.4266 45.6563 45.755Z" fill="#F27D73"/>
<path fill-rule="evenodd" clip-rule="evenodd" d="M37.7148 42.6803L45.6295 40.793C44.5131 45.1144 40.2015 45.4612 37.7148 42.6803Z" fill="#FFF6F0"/>
<path d="M64.6805 155.757H64.46C64.46 155.577 64.5001 155.397 64.5268 155.19H64.754C64.7273 155.397 64.7073 155.577 64.6805 155.757Z" fill="#DAEDEB"/>
<path d="M64.8213 154.044H64.6207C64.6207 153.683 64.6207 153.303 64.6207 152.896H64.8479C64.8479 153.303 64.8346 153.683 64.8213 154.044ZM64.6274 151.749C64.6274 151.376 64.6274 150.996 64.6274 150.602H64.8546C64.8546 150.996 64.8546 151.383 64.8546 151.749H64.6274ZM64.5805 149.455C64.5805 149.082 64.5806 148.695 64.5338 148.308H64.7677C64.7677 148.702 64.7678 149.089 64.8079 149.462L64.5805 149.455ZM64.487 147.161C64.487 146.788 64.4469 146.401 64.4268 146.014H64.6542C64.6542 146.408 64.6942 146.788 64.7143 147.161H64.487ZM64.36 144.874C64.36 144.494 64.3132 144.107 64.2865 143.727H64.5137C64.5137 144.107 64.5605 144.494 64.5872 144.867L64.36 144.874ZM64.2063 142.58L64.126 141.439H64.3533L64.4335 142.586L64.2063 142.58ZM64.0391 140.292C64.0391 139.912 63.979 139.532 63.9522 139.152H64.1795C64.1795 139.532 64.2397 139.919 64.2664 140.299L64.0391 140.292ZM63.8586 138.005C63.8586 137.625 63.7918 137.245 63.765 136.865H63.9924C63.9924 137.245 64.0525 137.625 64.0859 138.005H63.8586ZM63.6648 135.718C63.6648 135.337 63.598 134.957 63.5579 134.577H63.7851C63.8252 134.957 63.8587 135.337 63.8921 135.718H63.6648ZM63.4576 133.437L63.3506 132.29H63.5779L63.6848 133.43L63.4576 133.437ZM63.2436 131.149L63.13 130.009H63.3573L63.471 131.156L63.2436 131.149ZM63.0164 128.862L62.9028 127.722H63.13L63.2436 128.862H63.0164ZM62.7824 126.581L62.6621 125.441H62.8894L63.0097 126.581H62.7824ZM62.5418 124.294L62.4214 123.153H62.6488L62.769 124.3L62.5418 124.294ZM62.2945 122.013L62.1674 120.866H62.3947L62.5217 122.006L62.2945 122.013ZM62.0404 119.726V119.606L61.9335 118.579H62.1607L62.2543 119.512C62.2543 119.552 62.2543 119.619 62.2543 119.712L62.0404 119.726ZM61.8065 117.438L61.7129 116.571L61.8666 116.265L62.0738 116.371L61.9468 116.618L62.0337 117.418L61.8065 117.438ZM62.5818 115.338L62.3747 115.238L62.8626 114.197L63.0699 114.291L62.5818 115.338ZM63.5311 113.244L63.3239 113.15C63.4933 112.755 63.6336 112.401 63.745 112.09L63.9589 112.17C63.8453 112.483 63.6982 112.843 63.5311 113.244Z" fill="#DAEDEB"/>
<path d="M64.2928 111.129L64.0723 111.083V110.996C64.1131 110.853 64.1311 110.704 64.1257 110.556H64.353C64.3634 110.731 64.3453 110.906 64.2995 111.076L64.2928 111.129Z" fill="#DAEDEB"/>
</g>
<defs>
<linearGradient id="paint0_linear" x1="38.2026" y1="114.864" x2="36.0466" y2="124.616" gradientUnits="userSpaceOnUse">
<stop stop-color="#B3CECC"/>
<stop offset="1" stop-color="#ABC4C2"/>
</linearGradient>
<clipPath id="clip0">
<rect width="109" height="184" fill="white"/>
</clipPath>
</defs>
</svg>
