<?xml version="1.0" encoding="utf-8"?>
<!-- Generator: Adobe Illustrator 24.2.1, SVG Export Plug-In . SVG Version: 6.00 Build 0)  -->
<svg version="1.1" id="Capa_1" xmlns="http://www.w3.org/2000/svg" xmlns:xlink="http://www.w3.org/1999/xlink" x="0px" y="0px"
	 viewBox="0 0 117 114" style="enable-background:new 0 0 117 114;" xml:space="preserve">
<style type="text/css">
	.st0{clip-path:url(#SVGID_2_);}
	.st1{fill:#884189;}
	.st2{fill:#A77EAA;}
	.st3{fill:#723475;}
	.st4{fill:#6A2F6D;}
	.st5{fill:#E5D1E8;}
	.st6{fill:#BE3365;}
	.st7{fill:#ADCF4B;}
	.st8{fill:#DEC5E2;}
	.st9{fill:#481E4C;}
	.st10{fill:#FFFFFF;}
	.st11{fill:none;stroke:#884189;stroke-width:1.03;stroke-linecap:round;stroke-miterlimit:10;}
</style>
<g>
	<defs>
		<polygon id="SVGID_1_" points="2.2,-1.8 115.5,-1.8 120.4,127.2 8.5,110.4 		"/>
	</defs>
	<clipPath id="SVGID_2_">
		<use xlink:href="#SVGID_1_"  style="overflow:visible;"/>
	</clipPath>
	<g class="st0">
		<path class="st1" d="M33.8,105.7l15.4,7.3L27.5,50.6l-12.1,2.2L33.8,105.7z"/>
		<path class="st2" d="M49.2,113l63.6-39.8L92,15.6l-64.5,35L49.2,113z"/>
		<path class="st1" d="M15.4,52.8l66-37.3H92L28.3,53.1L15.4,52.8z"/>
		<path class="st3" d="M28.6,48.2l30.5-17l5.6,0.7l18.1,52.6c0.2,0.6,0.2,1.2,0,1.8c-0.2,0.6-0.6,1.1-1.2,1.4l-24.8,14.2
			c-0.3,0.2-0.7,0.3-1.1,0.3c-0.4,0-0.8,0-1.1-0.2c-0.4-0.1-0.7-0.4-1-0.6c-0.3-0.3-0.5-0.6-0.6-1L35.5,48.9L28.6,48.2z"/>
		<path class="st4" d="M33.3,47.6c-0.4-0.1-0.8-0.3-1.1-0.6c-0.3-0.3-0.6-0.6-0.7-1l-7.2-18.9c-0.8-2-0.8-4.2,0-6.2
			c0.7-2,2.2-3.6,4-4.6L46,6.8c7.4-2.8,9.1,1.8,10.3,5.1l24.6,71.6c0.2,0.6,0.2,1.2,0,1.8c-0.2,0.6-0.6,1.1-1.2,1.3L57.3,98.8
			c-0.3,0.2-0.7,0.3-1,0.3c-0.4,0-0.7,0-1.1-0.2c-0.3-0.1-0.6-0.3-0.9-0.6c-0.3-0.3-0.4-0.6-0.6-0.9L37.5,49.8
			c-0.1-0.4-0.4-0.8-0.7-1.1c-0.3-0.3-0.7-0.5-1.2-0.6L33.3,47.6z"/>
		<path class="st2" d="M53.6,96.9l-25-72.5c-0.4-1.3-0.4-2.7,0.1-3.9c0.5-1.2,1.4-2.3,2.6-2.9l17.2-9.1c0.7-0.4,1.5-0.6,2.2-0.6
			c0.8,0,1.6,0.1,2.3,0.4c0.7,0.3,1.4,0.7,1.9,1.3c0.5,0.6,1,1.3,1.2,2l24.7,71.6c0.2,0.7,0.2,1.4,0,2.1c-0.3,0.7-0.7,1.2-1.4,1.6
			L57.9,98.5c-0.4,0.2-0.8,0.3-1.2,0.4c-0.4,0-0.9,0-1.3-0.2c-0.4-0.2-0.8-0.4-1.1-0.7C54,97.7,53.7,97.3,53.6,96.9z"/>
		<path class="st4" d="M34.2,23.1l0.1,0.1c0.3,0.5,0.7,0.8,1.2,1c0.5,0.2,1.1,0.1,1.6-0.1L50.9,17c0.5-0.2,0.8-0.6,1-1.1
			c0.2-0.5,0.2-1,0-1.5c-0.1-0.3-0.3-0.5-0.5-0.7c-0.2-0.2-0.4-0.3-0.7-0.4c-0.3-0.1-0.5-0.1-0.8-0.1c-0.3,0-0.6,0.1-0.8,0.2
			l-13.9,7c-0.5,0.3-0.8,0.7-1,1.2C33.9,22,34,22.6,34.2,23.1z"/>
		<path class="st5" d="M62.4,37.6l-6.5,3.2l-5.2,2.6l-4.3,2.2l-5.7,2.8c-0.2,0.1-0.3,0.1-0.5,0.1c-0.2,0-0.4,0-0.5-0.1
			c-0.2-0.1-0.3-0.2-0.5-0.3c-0.1-0.1-0.2-0.3-0.3-0.5l-1.9-4.9l-3.2-8.4c-0.1-0.3-0.1-0.7,0-1c0.1-0.3,0.4-0.6,0.7-0.7l8.2-4
			l9.5-4.7l2.3-1.1l1.9-0.9c0.3-0.1,0.6-0.2,0.9-0.1c0.3,0.1,0.6,0.2,0.7,0.4c0.1,0.1,0.2,0.3,0.3,0.4l4.9,13.3c0.1,0.3,0.1,0.7,0,1
			C63,37.2,62.7,37.5,62.4,37.6z"/>
		<path class="st6" d="M45.2,57.2c1.7,0,3.1-1.4,3.1-3.2c0-1.7-1.4-3.2-3.1-3.2c-1.7,0-3.1,1.4-3.1,3.2
			C42.1,55.7,43.5,57.2,45.2,57.2z"/>
		<path class="st1" d="M57.5,91.1c1.3,0,2.3-1.1,2.3-2.4c0-1.3-1-2.4-2.3-2.4s-2.3,1.1-2.3,2.4C55.2,90,56.2,91.1,57.5,91.1z"/>
		<path class="st1" d="M63.4,88c1.3,0,2.3-1.1,2.3-2.4c0-1.3-1-2.4-2.3-2.4c-1.3,0-2.3,1.1-2.3,2.4C61.1,86.9,62.1,88,63.4,88z"/>
		<path class="st1" d="M69.3,84.9c1.3,0,2.3-1.1,2.3-2.4c0-1.3-1-2.4-2.3-2.4c-1.3,0-2.3,1.1-2.3,2.4C67,83.8,68.1,84.9,69.3,84.9z"
			/>
		<path class="st1" d="M75.3,81.8c1.3,0,2.3-1.1,2.3-2.4c0-1.3-1-2.4-2.3-2.4C74,77,73,78.1,73,79.4C73,80.7,74,81.8,75.3,81.8z"/>
		<path class="st1" d="M55,83.7c1.3,0,2.3-1.1,2.3-2.4s-1-2.4-2.3-2.4c-1.3,0-2.3,1.1-2.3,2.4S53.7,83.7,55,83.7z"/>
		<path class="st1" d="M60.9,80.6c1.3,0,2.3-1.1,2.3-2.4c0-1.3-1-2.4-2.3-2.4c-1.3,0-2.3,1.1-2.3,2.4C58.6,79.5,59.6,80.6,60.9,80.6
			z"/>
		<path class="st1" d="M66.8,77.5c1.3,0,2.3-1.1,2.3-2.4c0-1.3-1-2.4-2.3-2.4c-1.3,0-2.3,1.1-2.3,2.4C64.5,76.5,65.5,77.5,66.8,77.5
			z"/>
		<path class="st1" d="M72.8,74.4c1.3,0,2.3-1.1,2.3-2.4c0-1.3-1-2.4-2.3-2.4c-1.3,0-2.3,1.1-2.3,2.4C70.4,73.4,71.5,74.4,72.8,74.4
			z"/>
		<path class="st1" d="M51.8,76.9c1.3,0,2.3-1.1,2.3-2.4s-1-2.4-2.3-2.4c-1.3,0-2.3,1.1-2.3,2.4S50.5,76.9,51.8,76.9z"/>
		<path class="st1" d="M57.7,73.8c1.3,0,2.3-1.1,2.3-2.4c0-1.3-1-2.4-2.3-2.4c-1.3,0-2.3,1.1-2.3,2.4C55.4,72.8,56.4,73.8,57.7,73.8
			z"/>
		<path class="st1" d="M63.6,70.7c1.3,0,2.3-1.1,2.3-2.4c0-1.3-1-2.4-2.3-2.4s-2.3,1.1-2.3,2.4C61.3,69.7,62.3,70.7,63.6,70.7z"/>
		<path class="st1" d="M69.6,67.7c1.3,0,2.3-1.1,2.3-2.4c0-1.3-1-2.4-2.3-2.4c-1.3,0-2.3,1.1-2.3,2.4C67.2,66.6,68.3,67.7,69.6,67.7
			z"/>
		<path class="st1" d="M49.1,69.1c1.3,0,2.3-1.1,2.3-2.4s-1-2.4-2.3-2.4s-2.3,1.1-2.3,2.4S47.8,69.1,49.1,69.1z"/>
		<path class="st1" d="M55,66c1.3,0,2.3-1.1,2.3-2.4c0-1.3-1-2.4-2.3-2.4c-1.3,0-2.3,1.1-2.3,2.4C52.7,64.9,53.7,66,55,66z"/>
		<path class="st1" d="M60.9,62.9c1.3,0,2.3-1.1,2.3-2.4c0-1.3-1-2.4-2.3-2.4c-1.3,0-2.3,1.1-2.3,2.4C58.6,61.8,59.6,62.9,60.9,62.9
			z"/>
		<path class="st1" d="M66.9,59.8c1.3,0,2.3-1.1,2.3-2.4c0-1.3-1-2.4-2.3-2.4s-2.3,1.1-2.3,2.4C64.5,58.8,65.6,59.8,66.9,59.8z"/>
		<path class="st7" d="M52.2,53.7c1.7,0,3.1-1.4,3.1-3.2c0-1.7-1.4-3.2-3.1-3.2c-1.7,0-3.1,1.4-3.1,3.2
			C49.1,52.3,50.5,53.7,52.2,53.7z"/>
		<path class="st6" d="M88.4,63.3c1.7,0,3.1-1.4,3.1-3.2c0-1.7-1.4-3.2-3.1-3.2c-1.7,0-3.1,1.4-3.1,3.2
			C85.3,61.9,86.7,63.3,88.4,63.3z"/>
		<path class="st7" d="M95.2,59.4c1.7,0,3.1-1.4,3.1-3.2c0-1.7-1.4-3.2-3.1-3.2c-1.7,0-3.1,1.4-3.1,3.2C92.1,58,93.5,59.4,95.2,59.4
			z"/>
		<path class="st4" d="M28,19.8L21.8,4.7c-0.2-0.4-0.2-0.9,0-1.4c0.2-0.5,0.5-0.8,0.9-1l1.1-0.6c0.4-0.2,0.8-0.3,1.2-0.2l0.4,0.1
			c0.3,0.1,0.6,0.2,0.9,0.4c0.2,0.2,0.4,0.5,0.6,0.8L32,15.3L28,19.8z"/>
		<path class="st8" d="M95.5,40.4c-2.2-2.7-7.8-2.9-13.3-0.4c-6.2,2.7-10,7.8-8.5,11.3c0,0,0,0.1,0,0.1c-0.2-0.3-0.4-0.6-0.6-0.9
			c-1.5-3.5,2.3-8.6,8.5-11.3C87.8,36.4,93.9,37,95.5,40.4z"/>
		<path class="st1" d="M87,51.8c-5.6,2.5-11.2,2.2-13.4-0.5c0,0,0-0.1,0-0.1c-1.5-3.5,2.3-8.6,8.5-11.3c5.6-2.5,11.2-2.2,13.3,0.4
			c0,0,0,0.1,0.1,0.1C97,44,93.2,49.1,87,51.8z"/>
		<path class="st4" d="M78.4,46.3c0.5,0,0.8-0.4,0.8-0.9c0-0.5-0.4-0.9-0.8-0.9c-0.5,0-0.8,0.4-0.8,0.9C77.6,45.9,78,46.3,78.4,46.3
			z"/>
		<path class="st4" d="M82.2,47.5c0.5,0,0.8-0.4,0.8-0.9c0-0.5-0.4-0.9-0.8-0.9c-0.5,0-0.8,0.4-0.8,0.9
			C81.4,47.1,81.8,47.5,82.2,47.5z"/>
		<path class="st4" d="M80.5,50.5c0.5,0,0.8-0.4,0.8-0.9c0-0.5-0.4-0.9-0.8-0.9c-0.5,0-0.8,0.4-0.8,0.9C79.6,50.1,80,50.5,80.5,50.5
			z"/>
		<path class="st4" d="M89.9,41c0.5,0,0.8-0.4,0.8-0.9s-0.4-0.9-0.8-0.9c-0.5,0-0.8,0.4-0.8,0.9S89.4,41,89.9,41z"/>
		<path class="st4" d="M88.3,44.7c0.5,0,0.8-0.4,0.8-0.9c0-0.5-0.4-0.9-0.8-0.9c-0.5,0-0.8,0.4-0.8,0.9
			C87.5,44.3,87.8,44.7,88.3,44.7z"/>
		<path class="st4" d="M92,45.1c0.5,0,0.8-0.4,0.8-0.9c0-0.5-0.4-0.9-0.8-0.9c-0.5,0-0.8,0.4-0.8,0.9C91.2,44.7,91.5,45.1,92,45.1z"
			/>
		<path class="st4" d="M86.5,47.9c0.5,0,0.8-0.4,0.8-0.9c0-0.5-0.4-0.9-0.8-0.9c-0.5,0-0.8,0.4-0.8,0.9C85.7,47.5,86,47.9,86.5,47.9
			z"/>
		<path class="st4" d="M84.3,43.7c0.5,0,0.8-0.4,0.8-0.9c0-0.5-0.4-0.9-0.8-0.9c-0.5,0-0.8,0.4-0.8,0.9
			C83.5,43.3,83.8,43.7,84.3,43.7z"/>
		<path class="st1" d="M21.7,69.6l-9.1,22.6c-0.2,0.4-0.2,0.9-0.1,1.3c0.1,0.4,0.4,0.8,0.7,1.1c0.2,0.2,0.5,0.3,0.7,0.3
			c0.3,0.1,0.5,0.1,0.8,0c0.3-0.1,0.5-0.2,0.7-0.3c0.2-0.2,0.4-0.4,0.6-0.6l8.7-14.6L21.7,69.6z"/>
		<path class="st3" d="M16.1,94l11.5-5.8l-3-9L16.1,94z"/>
		<path class="st9" d="M36.8,22.2c0.4,0,0.8-0.4,0.8-0.8c0-0.5-0.4-0.8-0.8-0.8c-0.4,0-0.8,0.4-0.8,0.8C36,21.9,36.4,22.2,36.8,22.2
			z"/>
		<path class="st9" d="M41.8,19.9c0.4,0,0.8-0.4,0.8-0.8s-0.4-0.8-0.8-0.8c-0.4,0-0.8,0.4-0.8,0.8S41.4,19.9,41.8,19.9z"/>
		<path class="st9" d="M49.8,16c0.4,0,0.8-0.4,0.8-0.8c0-0.5-0.4-0.8-0.8-0.8c-0.4,0-0.8,0.4-0.8,0.8C49,15.6,49.4,16,49.8,16z"/>
		<path class="st9" d="M46.3,17.6c0.4,0,0.8-0.4,0.8-0.8s-0.4-0.8-0.8-0.8c-0.4,0-0.8,0.4-0.8,0.8S45.9,17.6,46.3,17.6z"/>
		<path class="st8" d="M92,15.6L90.6,17l20.5,57.4l1.7-1.2L92,15.6z"/>
		<path class="st8" d="M64.7,31.8L92,15.6l0.8,1.6L65.5,33.8L64.7,31.8z"/>
		<path class="st8" d="M28.3,53.1l0.7,1.5l6.8-4.3l-0.4-1.5L28.3,53.1z"/>
		<path class="st10" d="M52.1,23.9l-5.7,21.7l-5.7,2.8c-0.2,0.1-0.3,0.1-0.5,0.1c-0.2,0-0.4,0-0.5-0.1c-0.2-0.1-0.3-0.2-0.5-0.3
			c-0.1-0.1-0.2-0.3-0.3-0.5l-1.9-4.9l5.7-14.2L52.1,23.9z"/>
		<path class="st10" d="M57.9,22.1l-2,18.7l-5.2,2.6c0.8-4.8,2.9-16.3,3.6-20.6l1.9-0.9c0.3-0.1,0.6-0.2,0.9-0.1
			C57.4,21.8,57.7,21.9,57.9,22.1z"/>
		<path class="st11" d="M44.2,60.9l22.7-11.4"/>
	</g>
</g>
</svg>
