<svg width="113" height="193" viewBox="0 0 113 193" fill="none" xmlns="http://www.w3.org/2000/svg">
<g clip-path="url(#clip0)">
<path d="M6.8108 85.8629L2.97949 45.54L85.671 86.1706L88.8836 126.985L6.8108 85.8629Z" fill="#F9913E"/>
<path d="M2.9812 45.5677L20.249 33.7316L103.554 74.4091L85.848 86.2832L2.9812 45.5677Z" fill="#DD7833"/>
<path d="M103.33 74.3309L106.691 114.248L88.8835 126.985L85.671 86.1705L103.33 74.3309Z" fill="#DD7833"/>
<path d="M31.6078 77.934C32.2237 85.7585 25.7286 88.9077 19.8199 86.1868C12.5601 82.8336 7.57215 75.4043 6.95627 67.5798C6.3404 59.7552 12.3258 55.4412 18.4173 58.3009C26.4723 62.119 30.9919 70.1094 31.6078 77.934Z" fill="#BE3365"/>
<path d="M21.4309 61.8894C20.4355 61.1834 19.3806 60.5671 18.2785 60.0476C12.6056 57.366 7.01603 61.397 7.59091 68.7005C7.84816 71.5958 8.68846 74.4085 10.0603 76.966C11.4321 79.5235 13.3065 81.7719 15.5687 83.5735C13.0525 81.786 10.9519 79.4667 9.41319 76.7772C7.87448 74.0878 6.93467 71.0929 6.65926 68.0012C6.08438 60.6976 11.674 56.6666 17.3456 59.3313C18.8005 60.0219 20.1714 60.8803 21.4309 61.8894Z" fill="#D3C7D3"/>
<path d="M29.6715 77.6679C30.2464 84.9715 24.173 87.9105 18.6698 85.3721C17.5844 84.8683 16.5463 84.2664 15.5681 83.574C13.306 81.7724 11.4315 79.5239 10.0597 76.9664C8.68788 74.4089 7.84758 71.5963 7.59033 68.701C7.01545 61.3974 12.605 57.3664 18.278 60.048C19.38 60.5676 20.4349 61.1839 21.4303 61.8898C26.4075 65.8413 29.2106 71.8122 29.6715 77.6679Z" fill="#221022"/>
<path d="M32.9302 69.1199L33.0073 70.6557C33.0187 70.8869 33.092 71.1106 33.2194 71.3032C33.3467 71.4958 33.5234 71.6499 33.7306 71.7493L60.2063 84.4617C60.417 84.5628 60.6512 84.6033 60.8831 84.5788C61.1149 84.5543 61.3355 84.4656 61.5205 84.3226C61.7055 84.1796 61.8477 83.9878 61.9315 83.7683C62.0153 83.5488 62.0375 83.3101 61.9956 83.0785L61.6467 81.1726C61.6107 80.9714 61.5274 80.7818 61.4038 80.6197C61.2801 80.4577 61.1197 80.3279 60.9362 80.2414L34.7297 67.9094C34.5326 67.8168 34.3153 67.7769 34.0986 67.7934C33.882 67.81 33.6733 67.8826 33.4926 68.0041C33.3119 68.1257 33.1652 68.2922 33.0668 68.4875C32.9683 68.6829 32.9213 68.9007 32.9302 69.1199Z" fill="#BE3365"/>
<path d="M34.5629 92.0894L33.633 81.6891C33.6085 81.3399 33.6756 80.9906 33.8276 80.6762C33.9795 80.3618 34.2109 80.0935 34.4984 79.8984C34.7859 79.7032 35.1193 79.588 35.4652 79.5644C35.8111 79.5408 36.1572 79.6097 36.4686 79.764L53.0792 87.463C53.3876 87.6162 53.651 87.8482 53.8434 88.1357C54.0358 88.4233 54.1504 88.7566 54.1758 89.1024L54.9488 99.6513C54.9726 99.9949 54.9076 100.339 54.7601 100.649C54.6125 100.96 54.3876 101.226 54.1073 101.422C53.827 101.618 53.501 101.737 53.1612 101.768C52.8213 101.798 52.4793 101.739 52.1687 101.596L35.7033 93.7288C35.3868 93.5815 35.1144 93.3522 34.914 93.0642C34.7137 92.7762 34.5925 92.4399 34.5629 92.0894V92.0894Z" fill="#3D333D"/>
<path d="M35.4516 92.6762L34.7491 82.8945C34.6914 82.1605 35.2803 81.0759 35.9432 81.4016L51.8469 88.4312C51.9945 88.5039 52.1206 88.6145 52.2125 88.7518C52.3044 88.8892 52.3588 89.0485 52.3704 89.2138L53.1706 100.108C53.1824 100.273 53.1511 100.439 53.0798 100.588C53.0085 100.737 52.8997 100.865 52.7643 100.959C52.6288 101.052 52.4713 101.109 52.3076 101.122C52.1438 101.135 51.9794 101.104 51.8308 101.033L35.9888 93.4611C35.8388 93.3895 35.7101 93.2793 35.6158 93.1414C35.5214 93.0036 35.4648 92.8431 35.4516 92.6762V92.6762Z" fill="#BE3365"/>
<path d="M85.6925 107.052C86.3084 114.876 79.8133 118.025 73.9046 115.304C66.6448 111.951 61.6571 104.525 61.0412 96.7008C60.4254 88.8763 66.4105 84.5589 72.4891 87.4264C80.5606 91.2398 85.0766 99.2271 85.6925 107.052Z" fill="#BE3365"/>
<path d="M84.0805 106.784C84.6554 114.087 78.5786 117.027 73.0755 114.488C66.2999 111.376 61.6428 104.425 61.0677 97.1176C60.4926 89.8106 66.0961 85.7854 71.7533 88.4818C79.2907 92.0207 83.5048 99.4701 84.0805 106.784Z" fill="#221022"/>
<path d="M37.3313 89.397L37.2646 87.9931C37.2182 86.9756 37.2531 85.448 38.1938 85.8777L49.6942 91.2763C49.9235 91.3771 50.1214 91.539 50.2665 91.7447C50.4116 91.9504 50.4984 92.1921 50.5177 92.4437L50.6279 93.8442C50.6459 94.0824 50.6029 94.3212 50.5029 94.5376C50.4028 94.754 50.2493 94.9406 50.057 95.0796C49.8647 95.2185 49.6401 95.3051 49.4048 95.3309C49.1696 95.3567 48.9316 95.3209 48.7139 95.227L38.1552 90.612C37.9194 90.507 37.7174 90.3376 37.5718 90.1229C37.4262 89.9082 37.3429 89.6568 37.3313 89.397V89.397Z" fill="#3D333D"/>
<path d="M49.8473 93.521C49.9189 94.431 49.1622 94.7969 48.4764 94.4798C48.0619 94.2823 47.7058 93.9787 47.4434 93.5992C47.1811 93.2198 47.0217 92.7777 46.9812 92.317C46.9096 91.407 47.6051 90.9063 48.3123 91.2387C48.7442 91.4496 49.1135 91.7716 49.383 92.1723C49.6525 92.573 49.8127 93.0382 49.8473 93.521V93.521Z" fill="white"/>
<path d="M40.7157 89.2227C40.7873 90.1327 40.0306 90.4986 39.3448 90.1815C38.9308 89.9843 38.575 89.6812 38.3128 89.3023C38.0505 88.9235 37.8909 88.4821 37.8498 88.0221C37.7782 87.1121 38.4738 86.6114 39.181 86.9438C39.6128 87.1538 39.9821 87.4752 40.2516 87.8754C40.5211 88.2756 40.6812 88.7403 40.7157 89.2227V89.2227Z" fill="white"/>
<path d="M35.6881 72.5884L35.4404 69.4424L37.4042 70.3192L37.6575 73.5363L35.6881 72.5884Z" fill="#ADCF4B"/>
<path d="M39.3389 74.5103L39.0913 71.3643L41.0548 72.2377L41.3083 75.4581L39.3389 74.5103Z" fill="#17C3B2"/>
<path d="M42.9893 76.4293L42.7417 73.2832L44.7055 74.16L44.9587 77.3771L42.9893 76.4293Z" fill="#ADCF4B"/>
<path d="M46.9073 78.275L46.6597 75.1289L48.6235 76.0057L48.8767 79.2228L46.9073 78.275Z" fill="#884189"/>
<path d="M50.7586 79.9561L50.5112 76.8135L52.4748 77.6869L52.7283 80.9074L50.7586 79.9561Z" fill="#ADCF4B"/>
<path d="M55.5831 82.2281L55.3354 79.082L57.2992 79.9588L57.5525 83.1759L55.5831 82.2281Z" fill="#17C3B2"/>
<path d="M11.258 46.5465L23.459 37.931L36.8163 44.048L24.2979 53.1719L11.258 46.5465Z" fill="#F9913E"/>
<path d="M11.2583 46.5462L11.3273 47.4224L24.2774 54.0208L36.7583 44.9782L36.8166 44.0478L24.2982 53.1716L11.2583 46.5462Z" fill="#EF843C"/>
<path d="M23.374 49.0133C26.916 48.7345 29.6539 46.8137 29.4894 44.7231C29.3248 42.6324 26.3201 41.1637 22.7781 41.4425C19.2361 41.7213 16.4981 43.6421 16.6627 45.7327C16.8273 47.8233 19.832 49.2921 23.374 49.0133Z" fill="#DD7833"/>
<path d="M70.1804 74.5846L82.3781 65.9693L95.7354 72.0864L83.2169 81.2102L70.1804 74.5846Z" fill="#F9913E"/>
<path d="M70.1807 74.5853L70.2496 75.4615L83.1998 82.0599L95.6807 73.0173L95.7356 72.0871L83.2172 81.2109L70.1807 74.5853Z" fill="#EF843C"/>
<path d="M82.2929 77.0523C85.8349 76.7736 88.5729 74.8528 88.4083 72.7621C88.2438 70.6715 85.239 69.2027 81.697 69.4815C78.155 69.7603 75.4171 71.6811 75.5816 73.7717C75.7462 75.8624 78.751 77.3311 82.2929 77.0523Z" fill="#DD7833"/>
<path d="M9.42413 41.2785L8.70547 34.9325L12.3187 32.2212L12.9445 38.7583L9.42413 41.2785Z" fill="#221022"/>
<path d="M96.0612 98.6718L96.8068 108.144L103.342 104.134L101.532 95.9606L96.0612 98.6718Z" fill="#F9913E"/>
<path d="M100.352 105.033L99.5483 105.021L96.9825 77.9924L101.481 74.9153L103.836 102.992L100.352 105.033Z" fill="#221022"/>
<path d="M32.6927 57.6637L32.5729 57.0843L36.6215 54.3353L41.9554 56.8223L42.2222 57.4276L38.2588 60.3163L32.6927 57.6637Z" fill="#F9913E"/>
<path d="M44.2715 63.0803L44.1518 62.5008L48.2006 59.7552L53.5345 62.2422L53.8013 62.8476L49.8377 65.7328L44.2715 63.0803Z" fill="#F9913E"/>
<path d="M56.7943 69.3827L56.6779 68.8031L60.7265 66.0541L66.0604 68.5411L66.3272 69.1464L62.3638 72.035L56.7943 69.3827Z" fill="#F9913E"/>
<path d="M6.81063 85.8632L7.93157 86.6974L4.45598 48.1097L85.6142 88.2347L85.6709 86.1709L2.98145 45.5674L6.81063 85.8632Z" fill="white"/>
<path d="M4.16787 46.2945L21.2468 34.5005L20.024 33.7866L2.9812 45.5676L4.16787 46.2945Z" fill="#FFC6A6"/>
<path d="M96.9827 77.9928L8.70547 34.9325L12.3187 32.2212L101.421 75.1042L96.9827 77.9928Z" fill="#221022"/>
<path d="M9.90574 33.9941L97.258 76.8685L96.9824 77.993L8.70519 34.9327L9.90574 33.9941Z" fill="#A498A5"/>
<path d="M97.2581 76.868L100.702 104.859L99.5482 105.021L96.1452 77.507L97.2581 76.868Z" fill="#A498A5"/>
<path d="M10.3185 35.5068L10.4126 40.4282L9.42422 41.2786L8.70557 34.9326L10.3185 35.5068Z" fill="#A498A5"/>
<path d="M11.2582 46.5462L24.2981 53.1716L24.9539 52.4222L11.9584 45.7185L11.2582 46.5462Z" fill="#FFC6A6"/>
<path d="M32.5727 57.0852L38.549 59.8518L39.1681 59.364L33.047 56.6428L32.5727 57.0852Z" fill="#FFC6A6"/>
<path d="M44.1518 62.5011L49.817 64.9995L50.368 64.5885L44.6324 62.0957L44.1518 62.5011Z" fill="#FFC6A6"/>
<path d="M56.6777 68.8028L62.2748 71.3781L62.8257 70.9671L57.0812 68.4035L56.6777 68.8028Z" fill="#FFC6A6"/>
<path d="M70.1806 74.5851L83.2172 81.2107L83.9865 80.4898L70.6578 74.1799L70.1806 74.5851Z" fill="#FFC6A6"/>
<path d="M75.7847 91.1698C74.7893 90.4639 73.7344 89.8476 72.6323 89.328C66.9594 86.6464 61.3698 90.6774 61.9447 97.981C62.2006 100.876 63.0393 103.688 64.4094 106.246C65.7794 108.803 67.652 111.052 69.9124 112.855C67.3962 111.067 65.2956 108.748 63.7569 106.058C62.2182 103.369 61.2784 100.374 61.003 97.2824C60.4281 89.9789 66.0177 85.9479 71.6893 88.6126C73.1477 89.3022 74.522 90.1603 75.7847 91.1698V91.1698Z" fill="#D3C7D3"/>
<path d="M99.8396 74.4557L52.9251 3.52327L51.2553 4.5397L97.1033 73.0168L99.8396 74.4557Z" fill="#221022"/>
</g>
<defs>
<clipPath id="clip0">
<rect width="98" height="185" fill="white" transform="translate(0 7.68945) rotate(-4.50055)"/>
</clipPath>
</defs>
</svg>
