<svg width="179" height="233" viewBox="0 0 179 233" fill="none" xmlns="http://www.w3.org/2000/svg">
<path d="M169.442 232.659V232.822L0.391195 134.579L0 4.00071V3.65625L169.05 101.113L169.442 232.659Z" fill="#444444"/>
<path d="M162.219 222.99L4.56196 130.893L4.21289 14.691V14.3828L164.025 104.545L162.219 222.99Z" fill="#232323"/>
<path d="M178.162 96.0667L176.664 227.22L169.442 232.658L169.05 101.113L0 3.65606L8.14889 0L178.162 96.0667Z" fill="#232323"/>
<path d="M102.638 125.696C102.638 143.886 86.9417 149.977 73.7494 142.617C57.4998 133.552 47.2686 115.483 47.2686 97.2934C47.2686 79.1038 61.9654 70.2205 75.5549 77.9556C93.6101 88.2288 102.638 107.506 102.638 125.696Z" fill="#BE3365"/>
<path d="M65.9251 97.2939L65.3232 122.675L86.7788 119.472L65.9251 97.2939Z" fill="white"/>
<path opacity="0.29" d="M4.29688 122.427L89.3968 62.4551L137.026 89.1111L23.0321 141.637L4.53761 131.135L4.29688 122.427Z" fill="white"/>
<path opacity="0.29" d="M32.2227 147.451L141.318 93.0332L149.906 96.9491L47.2686 155.911L32.2227 147.451Z" fill="white"/>
<path d="M54.7193 165.925L38.8428 166.789L49.074 171.623L59.3053 172.228L80.4358 183.413L88.8315 194.587L99.0266 199.422L88.5065 185.571L54.7193 165.925Z" fill="#353535"/>
<path d="M99.0265 199.422L105.647 195.796L88.1934 185.522L99.0265 199.422Z" fill="#232323"/>
<path d="M38.8428 166.788L48.3578 162.377L54.9961 166.166L38.8428 166.788Z" fill="#232323"/>
<ellipse cx="147.162" cy="216.5" rx="1" ry="1.5" fill="#17C3B2"/>
<ellipse cx="150.162" cy="218.5" rx="1" ry="1.5" fill="#EEECE0"/>
<ellipse cx="143.162" cy="214.5" rx="1" ry="1.5" fill="#BE3365"/>
</svg>
