<svg width="112" height="168" viewBox="0 0 112 168" fill="none" xmlns="http://www.w3.org/2000/svg">
<g clip-path="url(#clip0)">
<path d="M112 0.899696L2.71927 65.3374L0 63.7325L110.276 0L112 0.899696Z" fill="#F5F4EC"/>
<path d="M112 104.146L1.69983 167.902V64.6563L112 0.899414V104.146Z" fill="#E3E2DC"/>
<path d="M1.74815 168L0.097168 167.003V63.7568L1.74815 64.7538V168Z" fill="#BEBDB7"/>
<path d="M109.354 101.179L4.78333 161.751V65.8966L109.354 5.3252V101.179Z" fill="#E6EDEF"/>
<path d="M91.9454 120.243L30.0334 156.012V154.31L53.6328 139.112L91.9454 118.541V120.243Z" fill="#E3E2DC"/>
<path d="M91.9457 118.542L73.6149 129.119L30.0337 154.311L26.0762 152.025L88.0124 116.256L91.9457 118.542Z" fill="#F98FB7"/>
<path d="M91.9457 118.542L73.6149 129.119L30.0337 154.311L26.0762 152.025L88.0124 116.256L91.9457 118.542Z" fill="#F5F4EC"/>
<path d="M28.0669 152.025L88.0123 117.398L89.9546 118.541L30.0335 153.167L28.0669 152.025Z" fill="#BEBDB7"/>
<path d="M30.0337 154.31L26.0762 152.024V153.751L30.0337 156.012V154.31Z" fill="#BEBDB7"/>
<path d="M14.7619 70.5166C14.6736 71.365 14.3911 72.1815 13.9363 72.9027C13.4815 73.6239 12.8667 74.2303 12.1397 74.6746C10.6587 75.5257 9.4447 75.015 9.4447 73.5318C9.53191 72.6645 9.8212 71.8298 10.2893 71.0949C10.7574 70.3601 11.3912 69.7455 12.1397 69.3008C13.5722 68.4497 14.7619 68.9603 14.7619 70.5166Z" fill="#88DD26"/>
<path d="M22.2886 66.0907C22.2059 66.9563 21.9211 67.7902 21.4571 68.5252C20.9932 69.2602 20.3631 69.8756 19.6178 70.3217C18.1368 71.1727 16.9229 70.6621 16.9229 69.1788C17.0101 68.3115 17.2993 67.4769 17.7674 66.742C18.2355 66.0071 18.8693 65.3926 19.6178 64.9478C21.0989 64.0968 22.2886 64.6074 22.2886 66.0907Z" fill="#44B5F7"/>
<path d="M29.8151 61.7391C29.7324 62.6047 29.4476 63.4387 28.9836 64.1737C28.5197 64.9087 27.8896 65.524 27.1443 65.9701C25.6633 66.8212 24.4736 66.3105 24.4736 64.8273C24.5563 63.9617 24.8411 63.1277 25.3051 62.3927C25.769 61.6577 26.3991 61.0423 27.1443 60.5963C28.6254 59.7452 29.8151 60.2558 29.8151 61.7391Z" fill="#F74642"/>
<path d="M37.3417 57.3862C37.259 58.2518 36.9742 59.0858 36.5102 59.8208C36.0463 60.5558 35.4162 61.1712 34.671 61.6172C33.1899 62.4683 32.0002 61.9577 32.0002 60.4744C32.0829 59.6088 32.3677 58.7748 32.8317 58.0398C33.2956 57.3048 33.9257 56.6894 34.671 56.2434C36.152 55.3923 37.3417 55.9273 37.3417 57.3862Z" fill="#E8D33D"/>
<path d="M50.0637 141.033C50.0226 140.701 49.9074 140.382 49.7267 140.1C49.546 139.818 49.3044 139.58 49.0196 139.404C48.8896 139.32 48.7378 139.274 48.5826 139.274C48.4275 139.274 48.2756 139.32 48.1456 139.404L45.9847 140.669L47.4415 142.954L49.6995 141.641C49.8184 141.594 49.9185 141.509 49.9843 141.399C50.0501 141.289 50.078 141.161 50.0637 141.033Z" fill="#F74642"/>
<path d="M47.8056 142.225C47.8056 142.809 47.3443 143.003 46.7858 142.687C46.4944 142.513 46.248 142.272 46.0666 141.985C45.8852 141.698 45.774 141.372 45.7418 141.033C45.7418 140.474 46.2031 140.28 46.7858 140.596C47.0684 140.772 47.3072 141.01 47.4839 141.292C47.6606 141.575 47.7706 141.894 47.8056 142.225Z" fill="#C62424"/>
<path d="M47.6846 142.298C47.6479 141.97 47.537 141.655 47.3603 141.377C47.1835 141.099 46.9457 140.865 46.6649 140.693C46.5385 140.61 46.3909 140.566 46.24 140.566C46.0891 140.566 45.9415 140.61 45.8151 140.693L39.4297 144.413L40.8379 146.626L47.3447 142.882C47.4548 142.832 47.5467 142.749 47.6076 142.644C47.6685 142.539 47.6954 142.419 47.6846 142.298Z" fill="#666262"/>
<path d="M41.2746 146.043C41.2746 146.602 40.8133 146.797 40.2548 146.481C39.9773 146.307 39.7433 146.072 39.5707 145.794C39.3981 145.516 39.2916 145.202 39.2594 144.876C39.2594 144.316 39.7207 144.122 40.2548 144.462C40.5376 144.626 40.7775 144.855 40.9547 145.13C41.132 145.404 41.2416 145.717 41.2746 146.043Z" fill="#494646"/>
<path d="M71.2111 128.875C71.1798 128.54 71.0715 128.216 70.8946 127.929C70.7177 127.642 70.477 127.4 70.1914 127.222C70.0613 127.137 69.9095 127.092 69.7544 127.092C69.5992 127.092 69.4474 127.137 69.3173 127.222L67.1565 128.486L68.6132 130.772L70.8712 129.459C70.9813 129.409 71.0732 129.326 71.1341 129.221C71.195 129.117 71.2219 128.996 71.2111 128.875Z" fill="#88DD26"/>
<path d="M68.9773 130.164C68.9773 130.724 68.516 130.918 67.9333 130.602C67.6476 130.424 67.407 130.182 67.2301 129.895C67.0532 129.608 66.9449 129.284 66.9136 128.948C66.9136 128.389 67.3749 128.195 67.9333 128.511C68.2247 128.685 68.4711 128.925 68.6525 129.213C68.8339 129.5 68.9452 129.826 68.9773 130.164Z" fill="#6FB515"/>
<path d="M68.8558 130.213C68.8229 129.887 68.7133 129.574 68.536 129.299C68.3587 129.025 68.1188 128.796 67.8361 128.632C67.7123 128.543 67.5637 128.495 67.4112 128.495C67.2588 128.495 67.1101 128.543 66.9863 128.632L60.698 132.304L62.1305 134.541L68.6373 130.772C68.7209 130.707 68.7854 130.621 68.8239 130.523C68.8624 130.424 68.8734 130.317 68.8558 130.213Z" fill="#666262"/>
<path d="M62.3732 133.957C62.3732 134.516 61.9119 134.711 61.3535 134.395C61.0734 134.224 60.8374 133.99 60.6645 133.711C60.4915 133.432 60.3866 133.117 60.358 132.79C60.358 132.23 60.7951 132.06 61.3535 132.376C61.6362 132.54 61.8761 132.769 62.0534 133.044C62.2306 133.318 62.3403 133.631 62.3732 133.957Z" fill="#494646"/>
<path d="M61.2565 134.59C61.2234 134.258 61.1141 133.938 60.9373 133.656C60.7604 133.373 60.5206 133.135 60.2368 132.961C60.1079 132.873 59.9557 132.826 59.7998 132.826C59.6439 132.826 59.4916 132.873 59.3628 132.961L57.2019 134.225L58.6344 136.511L60.9166 135.198C61.0336 135.15 61.1309 135.064 61.1926 134.954C61.2544 134.843 61.2769 134.715 61.2565 134.59Z" fill="#44B5F7"/>
<path d="M58.9987 135.903C58.9987 136.462 58.5374 136.657 57.9789 136.316C57.6906 136.145 57.4461 135.908 57.2649 135.625C57.0837 135.342 56.9707 135.021 56.9349 134.687C56.9349 134.104 57.4205 133.909 57.9789 134.25C58.2712 134.42 58.5171 134.66 58.695 134.949C58.8728 135.237 58.9771 135.565 58.9987 135.903Z" fill="#2E8DBC"/>
<path d="M58.8769 135.951C58.8465 135.625 58.7407 135.31 58.568 135.031C58.3952 134.753 58.1602 134.518 57.8814 134.346C57.7551 134.264 57.6074 134.22 57.4565 134.22C57.3056 134.22 57.158 134.264 57.0316 134.346L50.5977 137.994L52.0059 140.231L58.537 136.535C58.6471 136.485 58.7389 136.402 58.7998 136.297C58.8607 136.193 58.8876 136.072 58.8769 135.951Z" fill="#666262"/>
<path d="M52.3705 139.648C52.3705 140.207 51.9092 140.402 51.3508 140.061C51.0713 139.896 50.8351 139.667 50.662 139.392C50.4889 139.117 50.3837 138.804 50.3553 138.481C50.3553 137.921 50.8167 137.727 51.3751 138.043C51.6538 138.215 51.8889 138.449 52.0616 138.728C52.2344 139.006 52.3401 139.321 52.3705 139.648Z" fill="#494646"/>
<path d="M40.522 146.529C40.49 146.194 40.3786 145.871 40.197 145.588C40.0154 145.304 39.7689 145.068 39.478 144.9C39.3542 144.811 39.2056 144.763 39.0531 144.763C38.9007 144.763 38.7521 144.811 38.6282 144.9L36.4188 146.14L37.8513 148.426L40.1335 147.088C40.2508 147.051 40.3524 146.976 40.4226 146.875C40.4929 146.773 40.5278 146.652 40.522 146.529Z" fill="#E8D33D"/>
<path d="M38.2882 147.842C38.2882 148.425 37.8269 148.62 37.2442 148.279C36.9604 148.105 36.7207 147.867 36.5438 147.584C36.3669 147.302 36.2576 146.982 36.2245 146.65C36.2245 146.067 36.6858 145.872 37.2442 146.212C37.5326 146.384 37.777 146.621 37.9582 146.904C38.1395 147.186 38.2524 147.508 38.2882 147.842Z" fill="#C99E27"/>
<path d="M38.1427 147.915C38.1142 147.588 38.0092 147.272 37.8363 146.994C37.6634 146.715 37.4273 146.481 37.1473 146.31C37.021 146.228 36.8733 146.184 36.7224 146.184C36.5715 146.184 36.4239 146.228 36.2975 146.31L29.8878 150.006L31.296 152.243L37.8271 148.474C37.9357 148.431 38.0263 148.352 38.0837 148.251C38.1412 148.149 38.162 148.03 38.1427 147.915Z" fill="#666262"/>
<path d="M31.5629 151.66C31.5629 152.219 31.1259 152.413 30.5675 152.073C30.2847 151.909 30.0449 151.68 29.8676 151.406C29.6903 151.131 29.5807 150.818 29.5477 150.492C29.5477 149.933 30.009 149.739 30.5675 150.055C30.8462 150.227 31.0812 150.461 31.254 150.74C31.4268 151.018 31.5325 151.333 31.5629 151.66Z" fill="#494646"/>
</g>
<defs>
<clipPath id="clip0">
<rect width="112" height="168" fill="white"/>
</clipPath>
</defs>
</svg>
