<?xml version="1.0" encoding="UTF-8" standalone="no"?>
<svg
   xmlns:dc="http://purl.org/dc/elements/1.1/"
   xmlns:cc="http://creativecommons.org/ns#"
   xmlns:rdf="http://www.w3.org/1999/02/22-rdf-syntax-ns#"
   xmlns:svg="http://www.w3.org/2000/svg"
   xmlns="http://www.w3.org/2000/svg"
   xmlns:sodipodi="http://sodipodi.sourceforge.net/DTD/sodipodi-0.dtd"
   xmlns:inkscape="http://www.inkscape.org/namespaces/inkscape"
   width="112"
   height="168"
   viewBox="0 0 112 168"
   fill="none"
   version="1.1"
   id="svg67"
   sodipodi:docname="whiteboard_hover.svg"
   inkscape:version="1.0.1 (3bc2e813f5, 2020-09-07)">
  <metadata
     id="metadata71">
    <rdf:RDF>
      <cc:Work
         rdf:about="">
        <dc:format>image/svg+xml</dc:format>
        <dc:type
           rdf:resource="http://purl.org/dc/dcmitype/StillImage" />
        <dc:title />
      </cc:Work>
    </rdf:RDF>
  </metadata>
  <sodipodi:namedview
     pagecolor="#ffffff"
     bordercolor="#666666"
     borderopacity="1"
     objecttolerance="10"
     gridtolerance="10"
     guidetolerance="10"
     inkscape:pageopacity="0"
     inkscape:pageshadow="2"
     inkscape:window-width="640"
     inkscape:window-height="480"
     id="namedview69"
     showgrid="false"
     inkscape:zoom="2.5267857"
     inkscape:cx="208.90615"
     inkscape:cy="122.36643"
     inkscape:current-layer="layer1"
     inkscape:document-rotation="0" />
  <defs
     id="defs65">
    <clipPath
       id="clip0">
      <rect
         width="112"
         height="168"
         fill="white"
         id="rect62" />
    </clipPath>
    <filter
       style="color-interpolation-filters:sRGB;"
       inkscape:label="Blur"
       id="filter1137">
      <feGaussianBlur
         stdDeviation="2 2"
         result="fbSourceGraphic"
         id="feGaussianBlur1135" />
      <feColorMatrix
         result="fbSourceGraphicAlpha"
         in="fbSourceGraphic"
         values="0 0 0 -1 0 0 0 0 -1 0 0 0 0 -1 0 0 0 0 1 0"
         id="feColorMatrix1139" />
      <feGaussianBlur
         id="feGaussianBlur1141"
         stdDeviation="2 2"
         result="blur"
         in="fbSourceGraphic" />
    </filter>
  </defs>
  <g
     inkscape:groupmode="layer"
     id="layer1"
     inkscape:label="back">
    <path
       d="M 111.52535,102.1794 0.76767545,166.32043 V 64.818067 L 111.52535,0.6776624 Z"
       fill="#e6edef"
       id="path943"
       style="fill:#ff7100;fill-opacity:0.4509804;stroke-width:1.05905;filter:url(#filter1137)"
       transform="matrix(0.99363501,0,0,0.99363501,0.35737182,0.53147036)" />
  </g>
  <g
     inkscape:groupmode="layer"
     id="layer2"
     inkscape:label="wb"
     sodipodi:insensitive="true">
    <g
       id="g990">
      <path
         d="M 107.92135,6.9521432 6.5998671,66.696654 4.0786498,65.208644 106.32291,6.1179748 Z"
         fill="#f5f4ec"
         id="path2"
         style="stroke-width:0.927167" />
      <path
         d="M 107.92135,102.67871 5.654676,161.79116 V 66.065161 L 107.92135,6.9518818 Z"
         fill="#e3e2dc"
         id="path4"
         style="stroke-width:0.927167" />
      <path
         d="M 5.6994767,161.88203 4.1687408,160.95764 V 65.231174 l 1.5307359,0.924385 z"
         fill="#bebdb7"
         id="path6"
         style="stroke-width:0.927167" />
      <path
         d="M 105.46807,99.927802 8.5135954,156.08816 V 67.215126 L 105.46807,11.055324 Z"
         fill="#e6edef"
         id="path8"
         style="stroke-width:0.927167" />
      <path
         d="m 89.327388,117.60331 -57.402762,33.16384 v -1.57804 L 53.80521,135.09803 89.327388,116.02527 Z"
         fill="#e3e2dc"
         id="path10"
         style="stroke-width:0.927167" />
      <path
         d="m 89.327666,116.0262 -16.995712,9.80665 -40.40705,23.35719 -3.669263,-2.11951 57.425199,-33.16383 z"
         fill="#f98fb7"
         id="path12"
         style="stroke-width:0.927167" />
      <path
         d="m 89.327666,116.0262 -16.995712,9.80665 -40.40705,23.35719 -3.669263,-2.11951 57.425199,-33.16383 z"
         fill="#f5f4ec"
         id="path14"
         style="stroke-width:0.927167" />
      <path
         d="m 30.101352,147.07053 55.579395,-32.10501 1.800837,1.05975 -55.556865,32.10409 z"
         fill="#bebdb7"
         id="path16"
         style="stroke-width:0.927167" />
      <path
         d="m 31.924904,149.18911 -3.669263,-2.1195 v 1.60121 l 3.669263,2.09633 z"
         fill="#bebdb7"
         id="path18"
         style="stroke-width:0.927167" />
      <path
         d="m 17.765396,71.498637 c -0.08187,0.786609 -0.343794,1.54364 -0.765469,2.212313 -0.421676,0.668673 -0.991698,1.230907 -1.665748,1.642847 -1.373135,0.789112 -2.498715,0.315608 -2.498715,-1.059566 0.08086,-0.804132 0.349078,-1.578038 0.783085,-2.259413 0.434007,-0.681282 1.021645,-1.251119 1.71563,-1.66343 1.328166,-0.789112 2.431217,-0.315701 2.431217,1.127249 z"
         fill="#88dd26"
         id="path20"
         style="stroke-width:0.927167" />
      <path
         d="m 24.743904,67.395089 c -0.07668,0.802556 -0.340734,1.57572 -0.77094,2.257188 -0.430113,0.681468 -1.01432,1.252046 -1.705338,1.665655 -1.373134,0.789019 -2.498622,0.315608 -2.498622,-1.059659 0.08085,-0.804132 0.348985,-1.577945 0.782992,-2.25932 0.434007,-0.681375 1.021646,-1.251119 1.71563,-1.663523 1.373227,-0.789019 2.476278,-0.315608 2.476278,1.059659 z"
         fill="#44b5f7"
         id="path22"
         style="stroke-width:0.927167" />
      <path
         d="m 31.722226,63.360429 c -0.07668,0.802556 -0.340734,1.575813 -0.77094,2.257281 -0.430112,0.681468 -1.01432,1.251953 -1.705338,1.665563 -1.373134,0.789111 -2.476185,0.315607 -2.476185,-1.059567 0.07668,-0.802556 0.340734,-1.575813 0.77094,-2.257281 0.430112,-0.681467 1.01432,-1.252046 1.705245,-1.665562 1.373227,-0.789112 2.476278,-0.315701 2.476278,1.059566 z"
         fill="#f74642"
         id="path24"
         style="stroke-width:0.927167" />
      <path
         d="m 38.700641,59.324564 c -0.07668,0.802556 -0.340734,1.575813 -0.77094,2.257281 -0.430112,0.681467 -1.01432,1.252046 -1.705245,1.665562 -1.373227,0.789112 -2.476278,0.315701 -2.476278,-1.059566 0.07668,-0.802556 0.340734,-1.575813 0.77094,-2.257281 0.430112,-0.681467 1.01432,-1.252046 1.705338,-1.665562 1.373134,-0.789112 2.476185,-0.293078 2.476185,1.059566 z"
         fill="#e8d33d"
         id="path26"
         style="stroke-width:0.927167" />
      <path
         d="m 50.496059,136.87911 c -0.03811,-0.30782 -0.144916,-0.60358 -0.312455,-0.86504 -0.16754,-0.26146 -0.391543,-0.48213 -0.6556,-0.64531 -0.120532,-0.0779 -0.261276,-0.12053 -0.405172,-0.12053 -0.143804,0 -0.28464,0.0426 -0.405172,0.12053 l -2.003515,1.17287 1.350697,2.11857 2.093543,-1.21737 c 0.11024,-0.0436 0.203049,-0.12238 0.264057,-0.22437 0.06101,-0.10199 0.08688,-0.22067 0.07362,-0.33935 z"
         fill="#f74642"
         id="path28"
         style="stroke-width:0.927167" />
      <path
         d="m 48.402423,137.9843 c 0,0.54146 -0.427702,0.72133 -0.945525,0.42835 -0.270176,-0.16133 -0.49863,-0.38478 -0.666818,-0.65087 -0.168188,-0.2661 -0.271289,-0.56836 -0.301144,-0.88267 0,-0.51828 0.427702,-0.69815 0.967962,-0.40517 0.262018,0.16318 0.483425,0.38385 0.647255,0.64531 0.163831,0.26239 0.265819,0.55815 0.29827,0.86505 z"
         fill="#c62424"
         id="path30"
         style="stroke-width:0.927167" />
      <path
         d="m 48.290236,138.05198 c -0.03403,-0.30411 -0.13685,-0.59617 -0.30068,-0.85392 -0.163923,-0.25775 -0.384404,-0.47471 -0.644752,-0.63418 -0.117194,-0.077 -0.254044,-0.11775 -0.393954,-0.11775 -0.139909,0 -0.276759,0.0408 -0.393953,0.11775 l -5.920332,3.44906 1.305637,2.05182 6.03289,-3.47131 c 0.102081,-0.0464 0.187288,-0.12332 0.243752,-0.22067 0.05647,-0.0974 0.08141,-0.20861 0.07139,-0.3208 z"
         fill="#666262"
         id="path32"
         style="stroke-width:0.927167" />
      <path
         d="m 42.347096,141.52422 c 0,0.51829 -0.427703,0.69908 -0.945525,0.4061 -0.257289,-0.16133 -0.474246,-0.37921 -0.634275,-0.63696 -0.160029,-0.25776 -0.258772,-0.54889 -0.288627,-0.85114 0,-0.51922 0.427702,-0.69909 0.922902,-0.38385 0.262203,0.15206 0.48463,0.36438 0.648924,0.61935 0.164387,0.25404 0.266004,0.54424 0.296601,0.8465 z"
         fill="#494646"
         id="path34"
         style="stroke-width:0.927167" />
      <path
         d="m 70.10323,125.60662 c -0.02902,-0.3106 -0.129433,-0.611 -0.293449,-0.8771 -0.164016,-0.2661 -0.387185,-0.49047 -0.651984,-0.65551 -0.120624,-0.0788 -0.261368,-0.12053 -0.405172,-0.12053 -0.143896,0 -0.28464,0.0417 -0.405264,0.12053 l -2.003423,1.17194 1.350605,2.1195 2.093543,-1.21737 c 0.102081,-0.0463 0.187287,-0.12331 0.243752,-0.22066 0.05646,-0.0964 0.08141,-0.20861 0.07139,-0.3208 z"
         fill="#88dd26"
         id="path36"
         style="stroke-width:0.927167" />
      <path
         d="m 68.032124,126.80174 c 0,0.51921 -0.427702,0.69908 -0.967962,0.4061 -0.264892,-0.16504 -0.487968,-0.38941 -0.651984,-0.65551 -0.164016,-0.2661 -0.264428,-0.5665 -0.293448,-0.87803 0,-0.51829 0.427702,-0.69816 0.945432,-0.40517 0.270176,0.16133 0.49863,0.38385 0.666818,0.65087 0.168188,0.2661 0.271382,0.56835 0.301144,0.88174 z"
         fill="#6fb515"
         id="path38"
         style="stroke-width:0.927167" />
      <path
         d="m 67.919473,126.84717 c -0.0305,-0.30226 -0.132121,-0.59246 -0.296508,-0.84743 -0.164386,-0.25405 -0.386814,-0.46637 -0.648924,-0.61842 -0.114783,-0.0825 -0.25256,-0.12703 -0.393953,-0.12703 -0.1413,0 -0.27917,0.0445 -0.393953,0.12703 l -5.830304,3.40455 1.328166,2.07408 6.03289,-3.4945 c 0.07751,-0.0603 0.137314,-0.14 0.17301,-0.23086 0.0357,-0.0918 0.04589,-0.191 0.02958,-0.28742 z"
         fill="#666262"
         id="path40"
         style="stroke-width:0.927167" />
      <path
         d="m 61.909021,130.31848 c 0,0.51829 -0.427702,0.69908 -0.945433,0.4061 -0.259699,-0.15855 -0.47851,-0.3755 -0.638818,-0.63418 -0.160399,-0.25868 -0.257659,-0.55074 -0.284176,-0.85392 0,-0.51922 0.405264,-0.67684 0.922994,-0.38385 0.262111,0.15206 0.484538,0.36438 0.648925,0.61935 0.164294,0.25404 0.266004,0.54424 0.296508,0.8465 z"
         fill="#494646"
         id="path42"
         style="stroke-width:0.927167" />
      <path
         d="m 60.873653,130.90538 c -0.03069,-0.30782 -0.132028,-0.60452 -0.295951,-0.86598 -0.164016,-0.26238 -0.386351,-0.48305 -0.649481,-0.64438 -0.119512,-0.0816 -0.260626,-0.12517 -0.405172,-0.12517 -0.144545,0 -0.285753,0.0436 -0.405172,0.12517 l -2.003515,1.17194 1.328167,2.11951 2.11598,-1.21738 c 0.108479,-0.0445 0.198692,-0.12424 0.255898,-0.22622 0.0573,-0.10292 0.07816,-0.2216 0.05925,-0.33749 z"
         fill="#44b5f7"
         id="path44"
         style="stroke-width:0.927167" />
      <path
         d="m 58.780296,132.12275 c 0,0.51828 -0.427702,0.69908 -0.945525,0.38292 -0.267302,-0.15855 -0.493995,-0.37829 -0.661997,-0.64067 -0.168003,-0.26239 -0.272773,-0.56001 -0.305965,-0.86969 0,-0.54054 0.450232,-0.72133 0.967962,-0.40517 0.271011,0.15762 0.499001,0.38014 0.663944,0.64809 0.16485,0.26702 0.261554,0.57114 0.281581,0.88452 z"
         fill="#2e8dbc"
         id="path46"
         style="stroke-width:0.927167" />
      <path
         d="m 58.667367,132.16725 c -0.02819,-0.30225 -0.12628,-0.59431 -0.286402,-0.85299 -0.160215,-0.25775 -0.378099,-0.47564 -0.636593,-0.63511 -0.117101,-0.076 -0.254044,-0.11682 -0.393953,-0.11682 -0.13991,0 -0.27676,0.0408 -0.393953,0.11682 l -5.9653,3.3823 1.305637,2.07408 6.05542,-3.42681 c 0.102081,-0.0464 0.187195,-0.12332 0.243659,-0.22067 0.05646,-0.0964 0.0814,-0.20861 0.07148,-0.3208 z"
         fill="#666262"
         id="path48"
         style="stroke-width:0.927167" />
      <path
         d="m 52.634848,135.59499 c 0,0.51828 -0.427703,0.69908 -0.945433,0.38292 -0.259143,-0.15298 -0.47814,-0.36531 -0.638632,-0.62028 -0.160493,-0.25497 -0.258031,-0.54517 -0.284362,-0.84465 0,-0.51921 0.427795,-0.69908 0.945525,-0.4061 0.258401,0.15948 0.476378,0.37643 0.6365,0.63511 0.160214,0.25776 0.258216,0.54981 0.286402,0.853 z"
         fill="#494646"
         id="path50"
         style="stroke-width:0.927167" />
      <path
         d="m 41.64931,141.97482 c -0.02967,-0.3106 -0.132956,-0.61007 -0.30133,-0.87246 -0.168373,-0.26332 -0.39692,-0.48213 -0.666633,-0.63789 -0.114783,-0.0825 -0.25256,-0.12702 -0.393953,-0.12702 -0.1413,0 -0.279077,0.0445 -0.393953,0.12702 l -2.048483,1.14969 1.328167,2.1195 2.11598,-1.24055 c 0.108757,-0.0343 0.202957,-0.10384 0.268044,-0.19749 0.06518,-0.0946 0.09754,-0.20675 0.09216,-0.3208 z"
         fill="#e8d33d"
         id="path52"
         style="stroke-width:0.927167" />
      <path
         d="m 39.578204,143.19219 c 0,0.54054 -0.427702,0.72134 -0.967962,0.40518 -0.26313,-0.16133 -0.485372,-0.382 -0.649388,-0.64439 -0.164016,-0.26146 -0.265355,-0.55815 -0.296044,-0.86597 0,-0.54054 0.427702,-0.72133 0.945432,-0.4061 0.267395,0.15947 0.493994,0.37921 0.661997,0.6416 0.168095,0.26146 0.272773,0.56001 0.305965,0.86968 z"
         fill="#c99e27"
         id="path54"
         style="stroke-width:0.927167" />
      <path
         d="m 39.443301,143.25988 c -0.02642,-0.30319 -0.123776,-0.59617 -0.284084,-0.85392 -0.160307,-0.25868 -0.379211,-0.47564 -0.638818,-0.63419 -0.117101,-0.076 -0.254043,-0.11682 -0.393953,-0.11682 -0.139909,0 -0.276759,0.0408 -0.393953,0.11682 l -5.942862,3.42681 1.305636,2.07408 6.05542,-3.4945 c 0.100691,-0.0399 0.184692,-0.11311 0.237912,-0.20675 0.05331,-0.0946 0.0726,-0.20491 0.0547,-0.31153 z"
         fill="#666262"
         id="path56"
         style="stroke-width:0.927167" />
      <path
         d="m 33.342728,146.73212 c 0,0.51828 -0.405172,0.69815 -0.922902,0.38292 -0.262203,-0.15206 -0.484537,-0.36438 -0.648924,-0.61842 -0.164387,-0.25497 -0.266004,-0.54518 -0.296601,-0.84743 0,-0.51829 0.427702,-0.69816 0.945525,-0.40518 0.258402,0.15948 0.476286,0.37643 0.6365,0.63511 0.160215,0.25776 0.258216,0.54981 0.286402,0.853 z"
         fill="#494646"
         id="path58"
         style="stroke-width:0.927167" />
    </g>
  </g>
</svg>
